<svg width="25" height="24" viewBox="0 0 25 24" fill="none" xmlns="http://www.w3.org/2000/svg">
<path d="M19.4869 9.05346C19.4869 10.5145 19.0577 11.8547 18.3193 12.9732C17.2415 14.5854 15.535 15.724 13.5491 16.0162C13.2098 16.0767 12.8605 16.1069 12.5012 16.1069C12.142 16.1069 11.7927 16.0767 11.4534 16.0162C9.46749 15.724 7.761 14.5854 6.68322 12.9732C5.94474 11.8547 5.51562 10.5145 5.51562 9.05346C5.51562 5.15391 8.63919 2 12.5012 2C16.3633 2 19.4869 5.15391 19.4869 9.05346Z" fill="#B9F8FD"/>
<path d="M21.731 18.5955L20.0844 18.9884C19.7151 19.0791 19.4257 19.3613 19.3459 19.7341L18.9966 21.2153C18.807 22.0214 17.7891 22.2633 17.2602 21.6285L12.5 16.1066L7.7398 21.6385C7.21089 22.2733 6.19298 22.0315 6.00337 21.2254L5.65409 19.7441C5.56428 19.3713 5.27487 19.0791 4.91561 18.9985L3.269 18.6055C2.51056 18.4242 2.24112 17.4669 2.78999 16.9127L6.68198 12.9829C7.75976 14.5951 9.46625 15.7338 11.4522 16.026C11.7915 16.0865 12.1407 16.1167 12.5 16.1167C12.8593 16.1167 13.2085 16.0865 13.5478 16.026C15.5338 15.7338 17.2402 14.5951 18.318 12.9829L22.21 16.9127C22.7589 17.4568 22.4894 18.4141 21.731 18.5955Z" fill="#B67AFF"/>
<path d="M13.0798 6.01052L13.6686 7.19953C13.7484 7.36075 13.958 7.52198 14.1476 7.55221L15.2154 7.73357C15.894 7.84441 16.0537 8.34824 15.5647 8.84198L14.7364 9.67831C14.5967 9.81938 14.5168 10.0915 14.5667 10.293L14.8062 11.3308C14.9958 12.147 14.5667 12.4695 13.8482 12.0362L12.8503 11.4417C12.6706 11.3308 12.3712 11.3308 12.1916 11.4417L11.1937 12.0362C10.4751 12.4594 10.046 12.147 10.2356 11.3308L10.4751 10.293C10.5151 10.1015 10.4452 9.81938 10.3055 9.67831L9.4772 8.84198C8.98821 8.34824 9.14788 7.85449 9.82648 7.73357L10.8943 7.55221C11.0739 7.52198 11.2835 7.36075 11.3633 7.19953L11.9521 6.01052C12.2415 5.36563 12.7604 5.36563 13.0798 6.01052Z" fill="#B67AFF"/>
</svg>
