<svg width="21" height="20" viewBox="0 0 21 20" fill="none" xmlns="http://www.w3.org/2000/svg">
<path d="M7.16997 12.2734H2.49999C1.4 12.2734 0.5 13.1427 0.5 14.2051V20.0001H7.16997V12.2734Z" fill="#B9F8FD"/>
<path d="M11.8301 8.41016H9.16015C8.06015 8.41016 7.16016 9.27941 7.16016 10.3418V20.0001H13.8301V10.3418C13.8301 9.27941 12.9401 8.41016 11.8301 8.41016Z" fill="#B67AFF"/>
<path d="M18.5001 15.1709H13.8301V20.0001H20.5001V17.1026C20.5001 16.0401 19.6001 15.1709 18.5001 15.1709Z" fill="#B9F8FD"/>
<path d="M13.5097 3.43596C13.8197 3.13655 13.9397 2.7792 13.8397 2.47013C13.7397 2.16106 13.4297 1.93893 12.9897 1.87132L12.0297 1.71678C11.9897 1.70712 11.8997 1.64916 11.8797 1.61052L11.3497 0.586743C10.9497 -0.195581 10.0397 -0.195581 9.63967 0.586743L9.10968 1.61052C9.08968 1.64916 8.99968 1.70712 8.95968 1.71678L7.99968 1.87132C7.55968 1.93893 7.25969 2.16106 7.14969 2.47013C7.04969 2.7792 7.16968 3.13655 7.47968 3.43596L8.21968 4.16034C8.24968 4.18931 8.28968 4.30521 8.27968 4.34385L8.06968 5.2324C7.90968 5.88916 8.16968 6.18857 8.33968 6.31412C8.50968 6.43002 8.87968 6.58457 9.48968 6.23687L10.3897 5.72498C10.4297 5.69601 10.5597 5.69601 10.5997 5.72498L11.4997 6.23687C11.7797 6.40106 12.0097 6.44936 12.1897 6.44936C12.3997 6.44936 12.5497 6.37207 12.6397 6.31412C12.8097 6.19823 13.0697 5.89882 12.9097 5.2324L12.6997 4.34385C12.6897 4.29556 12.7197 4.18931 12.7597 4.16034L13.5097 3.43596Z" fill="#B67AFF"/>
</svg>
