<svg width="20" height="20" viewBox="0 0 20 20" fill="none" xmlns="http://www.w3.org/2000/svg">
<path d="M7.03 3.17C7.02 3.08 7.01 3 6.99 2.91C6.98 2.84 6.97 2.77 6.95 2.69C6.92 2.57 6.88 2.44 6.83 2.32C6.71 1.97 6.53 1.65 6.3 1.35C6.17 1.19 6.03 1.03 5.87 0.9C5.23 0.32 4.4 0 3.53 0C1.58 0 0 1.58 0 3.53C0 4.4 0.32 5.23 0.9 5.87C1.03 6.03 1.19 6.17 1.35 6.3C1.65 6.53 1.97 6.71 2.32 6.83C2.44 6.88 2.57 6.92 2.69 6.95C2.77 6.97 2.84 6.98 2.91 6.99C3 7.01 3.08 7.02 3.17 7.03C3.29 7.04 3.41 7.05 3.53 7.05C5.47 7.05 7.05 5.47 7.05 3.53C7.05 3.41 7.04 3.29 7.03 3.17Z" fill="#B67AFF"/>
<path d="M19.0992 14.1402C18.9992 14.0102 18.8692 13.8802 18.7292 13.7702C18.7092 13.7502 18.6792 13.7202 18.6492 13.7002C18.3792 13.4902 18.0792 13.3202 17.7692 13.2002C17.7392 13.1802 17.7092 13.1702 17.6792 13.1702C17.5692 13.1302 17.4592 13.0902 17.3492 13.0602C17.1792 13.0202 16.9992 12.9902 16.8292 12.9702C16.7092 12.9602 16.5892 12.9502 16.4692 12.9502C14.5292 12.9502 12.9492 14.5302 12.9492 16.4702C12.9492 16.5902 12.9592 16.7102 12.9692 16.8302C12.9892 17.0002 13.0192 17.1802 13.0592 17.3502C13.0892 17.4602 13.1292 17.5702 13.1692 17.6802C13.1692 17.7102 13.1792 17.7402 13.1992 17.7702C13.3192 18.0802 13.4892 18.3802 13.6992 18.6502C13.7192 18.6802 13.7492 18.7002 13.7692 18.7302C13.8792 18.8702 14.0092 19.0002 14.1392 19.1002C14.7792 19.6802 15.5992 20.0002 16.4692 20.0002C18.4192 20.0002 19.9992 18.4202 19.9992 16.4702C19.9992 15.6002 19.6792 14.7802 19.0992 14.1402Z" fill="#B67AFF"/>
<path d="M3.53 12.9502C3.41 12.9502 3.29 12.9602 3.17 12.9702C3 12.9902 2.82 13.0202 2.65 13.0602C2.54 13.0902 2.43 13.1302 2.32 13.1702C2.29 13.1702 2.26 13.1802 2.23 13.2002C1.92 13.3202 1.62 13.4902 1.35 13.7002C1.32 13.7202 1.3 13.7502 1.27 13.7702C1.13 13.8802 1 14.0102 0.9 14.1402C0.32 14.7802 0 15.6002 0 16.4702C0 18.4202 1.58 20.0002 3.53 20.0002C4.4 20.0002 5.23 19.6802 5.87 19.1002C6.03 18.9702 6.17 18.8102 6.3 18.6502C6.51 18.3802 6.68 18.0802 6.8 17.7702C6.82 17.7402 6.83 17.7102 6.83 17.6802C6.87 17.5702 6.91 17.4602 6.94 17.3502C6.98 17.1802 7.01 17.0002 7.03 16.8302C7.04 16.7102 7.05 16.5902 7.05 16.4702C7.05 14.5302 5.47 12.9502 3.53 12.9502Z" fill="#B67AFF"/>
<path d="M16.4692 0C15.5992 0 14.7792 0.32 14.1392 0.9C14.0092 1 13.8792 1.13 13.7692 1.27C13.7492 1.29 13.7192 1.32 13.6992 1.35C13.4892 1.62 13.3192 1.92 13.1992 2.23C13.1792 2.26 13.1692 2.29 13.1692 2.32C13.1292 2.43 13.0892 2.54 13.0592 2.65C13.0192 2.82 12.9892 3 12.9692 3.17C12.9592 3.29 12.9492 3.41 12.9492 3.53C12.9492 5.47 14.5292 7.05 16.4692 7.05C16.5892 7.05 16.7092 7.04 16.8292 7.03C16.9992 7.01 17.1792 6.98 17.3492 6.94C17.4592 6.91 17.5692 6.87 17.6792 6.83C17.7092 6.83 17.7392 6.82 17.7692 6.8C18.0792 6.68 18.3792 6.51 18.6492 6.3C18.8092 6.17 18.9692 6.03 19.0992 5.87C19.6792 5.23 19.9992 4.4 19.9992 3.53C19.9992 1.58 18.4192 0 16.4692 0Z" fill="#B67AFF"/>
<path d="M13.77 18.73C13.75 18.7 13.72 18.68 13.7 18.65C13.49 18.38 13.32 18.08 13.2 17.77C13.21 17.8 13.22 17.83 13.23 17.86C11.22 18.7 8.82 18.71 6.77 17.86C6.78 17.83 6.79 17.8 6.8 17.77C6.68 18.08 6.51 18.38 6.3 18.65C6.17 18.81 6.03 18.97 5.87 19.1C7.15 19.69 8.57 20 10 20C11.46 20 12.85 19.7 14.14 19.1C14.01 19 13.88 18.87 13.77 18.73ZM1.5 10C1.5 8.89 1.72 7.78 2.14 6.77C2.15 6.77 2.17 6.78 2.18 6.78C2.06 6.73 1.93 6.67 1.82 6.61C1.66 6.52 1.5 6.42 1.35 6.3C1.19 6.17 1.03 6.03 0.9 5.87C0.31 7.15 0 8.57 0 10C0 11.46 0.3 12.85 0.9 14.14C1 14.01 1.13 13.88 1.27 13.77C1.3 13.75 1.32 13.72 1.35 13.7C1.62 13.49 1.92 13.32 2.23 13.2C2.2 13.21 2.17 13.22 2.14 13.23C1.71 12.22 1.5 11.13 1.5 10ZM19.1 5.87C18.97 6.03 18.81 6.17 18.65 6.3C18.38 6.51 18.08 6.68 17.77 6.8C17.8 6.79 17.83 6.78 17.86 6.77C18.28 7.78 18.5 8.89 18.5 10C18.5 11.13 18.29 12.22 17.86 13.23C17.83 13.22 17.8 13.21 17.77 13.2C18.08 13.32 18.38 13.49 18.65 13.7C18.68 13.72 18.71 13.75 18.73 13.77C18.87 13.88 19 14.01 19.1 14.14C19.7 12.85 20 11.46 20 10C20 8.57 19.69 7.15 19.1 5.87ZM10 0C8.57 0 7.15 0.31 5.87 0.9C6.03 1.03 6.17 1.19 6.3 1.35C6.42 1.5 6.52 1.66 6.61 1.82C6.67 1.93 6.73 2.06 6.78 2.18C6.78 2.17 6.77 2.15 6.77 2.14C8.81 1.29 11.22 1.3 13.23 2.14C13.22 2.17 13.21 2.2 13.2 2.23C13.32 1.92 13.49 1.62 13.7 1.35C13.72 1.32 13.75 1.29 13.77 1.27C13.88 1.13 14.01 1 14.14 0.9C12.85 0.3 11.46 0 10 0Z" fill="#B9F8FD"/>
</svg>
