<svg width="25" height="24" viewBox="0 0 25 24" fill="none" xmlns="http://www.w3.org/2000/svg">
<path d="M9.53 5.17C9.52 5.08 9.51 5 9.49 4.91C9.48 4.84 9.47 4.77 9.45 4.69C9.42 4.57 9.38 4.44 9.33 4.32C9.21 3.97 9.03 3.65 8.8 3.35C8.67 3.19 8.53 3.03 8.37 2.9C7.73 2.32 6.9 2 6.03 2C4.08 2 2.5 3.58 2.5 5.53C2.5 6.4 2.82 7.23 3.4 7.87C3.53 8.03 3.69 8.17 3.85 8.3C4.15 8.53 4.47 8.71 4.82 8.83C4.94 8.88 5.07 8.92 5.19 8.95C5.27 8.97 5.34 8.98 5.41 8.99C5.5 9.01 5.58 9.02 5.67 9.03C5.79 9.04 5.91 9.05 6.03 9.05C7.97 9.05 9.55 7.47 9.55 5.53C9.55 5.41 9.54 5.29 9.53 5.17Z" fill="#B67AFF"/>
<path d="M21.5992 16.1402C21.4992 16.0102 21.3692 15.8802 21.2292 15.7702C21.2092 15.7502 21.1792 15.7202 21.1492 15.7002C20.8792 15.4902 20.5792 15.3202 20.2692 15.2002C20.2392 15.1802 20.2092 15.1702 20.1792 15.1702C20.0692 15.1302 19.9592 15.0902 19.8492 15.0602C19.6792 15.0202 19.4992 14.9902 19.3292 14.9702C19.2092 14.9602 19.0892 14.9502 18.9692 14.9502C17.0292 14.9502 15.4492 16.5302 15.4492 18.4702C15.4492 18.5902 15.4592 18.7102 15.4692 18.8302C15.4892 19.0002 15.5192 19.1802 15.5592 19.3502C15.5892 19.4602 15.6292 19.5702 15.6692 19.6802C15.6692 19.7102 15.6792 19.7402 15.6992 19.7702C15.8192 20.0802 15.9892 20.3802 16.1992 20.6502C16.2192 20.6802 16.2492 20.7002 16.2692 20.7302C16.3792 20.8702 16.5092 21.0002 16.6392 21.1002C17.2792 21.6802 18.0992 22.0002 18.9692 22.0002C20.9192 22.0002 22.4992 20.4202 22.4992 18.4702C22.4992 17.6002 22.1792 16.7802 21.5992 16.1402Z" fill="#B67AFF"/>
<path d="M6.03 14.9502C5.91 14.9502 5.79 14.9602 5.67 14.9702C5.5 14.9902 5.32 15.0202 5.15 15.0602C5.04 15.0902 4.93 15.1302 4.82 15.1702C4.79 15.1702 4.76 15.1802 4.73 15.2002C4.42 15.3202 4.12 15.4902 3.85 15.7002C3.82 15.7202 3.8 15.7502 3.77 15.7702C3.63 15.8802 3.5 16.0102 3.4 16.1402C2.82 16.7802 2.5 17.6002 2.5 18.4702C2.5 20.4202 4.08 22.0002 6.03 22.0002C6.9 22.0002 7.73 21.6802 8.37 21.1002C8.53 20.9702 8.67 20.8102 8.8 20.6502C9.01 20.3802 9.18 20.0802 9.3 19.7702C9.32 19.7402 9.33 19.7102 9.33 19.6802C9.37 19.5702 9.41 19.4602 9.44 19.3502C9.48 19.1802 9.51 19.0002 9.53 18.8302C9.54 18.7102 9.55 18.5902 9.55 18.4702C9.55 16.5302 7.97 14.9502 6.03 14.9502Z" fill="#B67AFF"/>
<path d="M18.9692 2C18.0992 2 17.2792 2.32 16.6392 2.9C16.5092 3 16.3792 3.13 16.2692 3.27C16.2492 3.29 16.2192 3.32 16.1992 3.35C15.9892 3.62 15.8192 3.92 15.6992 4.23C15.6792 4.26 15.6692 4.29 15.6692 4.32C15.6292 4.43 15.5892 4.54 15.5592 4.65C15.5192 4.82 15.4892 5 15.4692 5.17C15.4592 5.29 15.4492 5.41 15.4492 5.53C15.4492 7.47 17.0292 9.05 18.9692 9.05C19.0892 9.05 19.2092 9.04 19.3292 9.03C19.4992 9.01 19.6792 8.98 19.8492 8.94C19.9592 8.91 20.0692 8.87 20.1792 8.83C20.2092 8.83 20.2392 8.82 20.2692 8.8C20.5792 8.68 20.8792 8.51 21.1492 8.3C21.3092 8.17 21.4692 8.03 21.5992 7.87C22.1792 7.23 22.4992 6.4 22.4992 5.53C22.4992 3.58 20.9192 2 18.9692 2Z" fill="#B67AFF"/>
<path d="M16.27 20.73C16.25 20.7 16.22 20.68 16.2 20.65C15.99 20.38 15.82 20.08 15.7 19.77C15.71 19.8 15.72 19.83 15.73 19.86C13.72 20.7 11.32 20.71 9.27 19.86C9.28 19.83 9.29 19.8 9.3 19.77C9.18 20.08 9.01 20.38 8.8 20.65C8.67 20.81 8.53 20.97 8.37 21.1C9.65 21.69 11.07 22 12.5 22C13.96 22 15.35 21.7 16.64 21.1C16.51 21 16.38 20.87 16.27 20.73ZM4 12C4 10.89 4.22 9.78 4.64 8.77C4.65 8.77 4.67 8.78 4.68 8.78C4.56 8.73 4.43 8.67 4.32 8.61C4.16 8.52 4 8.42 3.85 8.3C3.69 8.17 3.53 8.03 3.4 7.87C2.81 9.15 2.5 10.57 2.5 12C2.5 13.46 2.8 14.85 3.4 16.14C3.5 16.01 3.63 15.88 3.77 15.77C3.8 15.75 3.82 15.72 3.85 15.7C4.12 15.49 4.42 15.32 4.73 15.2C4.7 15.21 4.67 15.22 4.64 15.23C4.21 14.22 4 13.13 4 12ZM21.6 7.87C21.47 8.03 21.31 8.17 21.15 8.3C20.88 8.51 20.58 8.68 20.27 8.8C20.3 8.79 20.33 8.78 20.36 8.77C20.78 9.78 21 10.89 21 12C21 13.13 20.79 14.22 20.36 15.23C20.33 15.22 20.3 15.21 20.27 15.2C20.58 15.32 20.88 15.49 21.15 15.7C21.18 15.72 21.21 15.75 21.23 15.77C21.37 15.88 21.5 16.01 21.6 16.14C22.2 14.85 22.5 13.46 22.5 12C22.5 10.57 22.19 9.15 21.6 7.87ZM12.5 2C11.07 2 9.65 2.31 8.37 2.9C8.53 3.03 8.67 3.19 8.8 3.35C8.92 3.5 9.02 3.66 9.11 3.82C9.17 3.93 9.23 4.06 9.28 4.18C9.28 4.17 9.27 4.15 9.27 4.14C11.31 3.29 13.72 3.3 15.73 4.14C15.72 4.17 15.71 4.2 15.7 4.23C15.82 3.92 15.99 3.62 16.2 3.35C16.22 3.32 16.25 3.29 16.27 3.27C16.38 3.13 16.51 3 16.64 2.9C15.35 2.3 13.96 2 12.5 2Z" fill="#B9F8FD"/>
</svg>
