<svg width="17" height="14" viewBox="0 0 17 14" fill="none" xmlns="http://www.w3.org/2000/svg">
<path d="M12.3745 0.216797L6.75786 0.216797V2.73346C6.75786 3.05846 6.4912 3.3168 6.17453 3.3168C5.85786 3.3168 5.5912 3.05846 5.5912 2.73346V0.216797L4.62453 0.216797C1.33286 0.216797 0.249528 1.20013 0.174528 4.27513C0.166195 4.42513 0.232862 4.58346 0.341195 4.6918C0.449528 4.80846 0.591195 4.8668 0.757862 4.8668C1.92453 4.8668 2.88286 5.83346 2.88286 7.00013C2.88286 8.1668 1.92453 9.13346 0.757862 9.13346C0.599528 9.13346 0.449528 9.1918 0.341195 9.30846C0.232862 9.4168 0.166195 9.57513 0.174528 9.72513C0.249528 12.8001 1.33286 13.7835 4.62453 13.7835H5.5912V11.2668C5.5912 10.9418 5.85786 10.6835 6.17453 10.6835C6.4912 10.6835 6.75786 10.9418 6.75786 11.2668V13.7835H12.3745C15.7912 13.7835 16.8329 12.7418 16.8329 9.32513V4.67513C16.8329 1.25846 15.7912 0.216797 12.3745 0.216797ZM13.8912 6.9168L13.1162 7.6668C13.0829 7.6918 13.0745 7.7418 13.0829 7.78346L13.2662 8.8418C13.2995 9.03346 13.2245 9.23346 13.0579 9.35013C12.8995 9.4668 12.6912 9.48346 12.5162 9.3918L11.5579 8.8918C11.5245 8.87513 11.4745 8.87513 11.4412 8.8918L10.4829 9.3918C10.4079 9.43346 10.3245 9.45013 10.2412 9.45013C10.1329 9.45013 10.0329 9.4168 9.94119 9.35013C9.78286 9.23346 9.69953 9.0418 9.73286 8.8418L9.9162 7.78346C9.92453 7.7418 9.90786 7.70013 9.88286 7.6668L9.10786 6.9168C8.96619 6.78346 8.91619 6.57513 8.97453 6.3918C9.03286 6.20013 9.19119 6.0668 9.39119 6.0418L10.4579 5.88346C10.4995 5.87513 10.5329 5.85013 10.5579 5.8168L11.0329 4.85013C11.1245 4.67513 11.2995 4.5668 11.4995 4.5668C11.6995 4.5668 11.8745 4.67513 11.9579 4.85013L12.4329 5.8168C12.4495 5.85846 12.4829 5.88346 12.5245 5.88346L13.5912 6.0418C13.7912 6.0668 13.9495 6.20846 14.0079 6.3918C14.0829 6.57513 14.0329 6.77513 13.8912 6.9168Z" fill="url(#paint0_linear_12611_1727)"/>
<defs>
<linearGradient id="paint0_linear_12611_1727" x1="0.173828" y1="13.7835" x2="18.2362" y2="11.5461" gradientUnits="userSpaceOnUse">
<stop stop-color="#9945FF"/>
<stop offset="1" stop-color="#B9F8FD"/>
</linearGradient>
</defs>
</svg>
