<svg width="647" height="647" viewBox="0 0 647 647" fill="none" xmlns="http://www.w3.org/2000/svg">
<g filter="url(#filter0_dii_12463_131134)">
<circle cx="324.13" cy="323.914" r="313.99" fill="url(#paint0_linear_12463_131134)"/>
</g>
<path d="M323.815 323.472L61.2363 263.198C79.5791 183.289 133.312 116.082 207.224 80.5999L323.815 323.472Z" fill="#FFE500" stroke="white"/>
<path d="M323.815 323.472L207.223 80.6001C281.135 45.1185 367.182 45.2249 441.006 80.8892L323.815 323.472Z" fill="#EAF6ED" stroke="white"/>
<path d="M323.814 323.472L441.006 80.8891C514.83 116.553 568.396 183.894 586.541 263.848L323.814 323.472Z" fill="#C9EAD4" stroke="white"/>
<path d="M323.814 323.473L586.54 263.849C604.686 343.803 585.435 427.669 534.237 491.706L323.814 323.473Z" fill="#A9DEBA" stroke="white"/>
<path d="M323.814 323.473L534.237 491.706C483.04 555.743 405.468 592.982 323.481 592.88L323.814 323.473Z" fill="#88D1A1" stroke="white"/>
<path d="M323.814 323.472L323.481 592.879C241.494 592.778 164.014 555.348 112.976 491.184L323.814 323.472Z" fill="#59AA76" stroke="white"/>
<path d="M323.814 323.473L112.976 491.185C61.9368 427.022 42.8934 343.109 61.2361 263.2L323.814 323.473Z" fill="#4B8F64" stroke="white"/>
<g filter="url(#filter1_dii_12463_131134)">
<path d="M46.7866 300.798C46.1984 307.678 40.2453 312.712 33.3627 312.124C26.5743 311.536 21.5389 305.585 22.0448 298.704C22.633 291.918 28.6685 286.872 35.4687 287.378C41.9277 287.978 46.869 293.423 46.869 299.786C46.869 300.127 46.7866 300.457 46.7866 300.798ZM38.0687 377.035C31.2685 378.047 24.9743 373.354 24.0566 366.556C23.0448 359.769 27.8332 353.477 34.5392 352.548C41.3394 351.548 47.6337 356.241 48.5514 363.039C48.6337 363.627 48.7161 364.215 48.7161 364.792C48.7161 370.919 44.2807 376.2 38.0687 377.035ZM58.9516 239.744C56.8575 246.201 49.8926 249.8 43.3512 247.801C36.8099 245.696 33.2921 238.733 35.2922 232.193C37.3981 225.654 44.363 222.043 50.8926 224.137C56.1869 225.819 59.5399 230.688 59.5399 235.969C59.5399 237.227 59.3752 238.486 58.9516 239.744ZM57.1045 439.371C50.7279 441.794 43.5159 438.606 41.0806 432.231C38.657 425.774 41.8453 418.647 48.2102 416.212C54.5868 413.695 61.7988 416.883 64.2342 423.34C64.8224 424.763 65.0812 426.268 65.0812 427.786C65.0812 432.737 62.0576 437.43 57.1045 439.371ZM84.2817 182.796C80.8464 188.747 73.2109 190.676 67.2578 187.23C61.387 183.713 59.3752 176.162 62.8929 170.293C66.3401 164.342 73.9638 162.401 79.8346 165.847C83.7876 168.117 85.9642 172.316 85.9642 176.586C85.9642 178.679 85.4583 180.867 84.2817 182.796ZM89.4819 495.814C83.7876 499.66 76.058 498.154 72.2932 492.462C68.4343 486.746 69.9402 479.03 75.6462 475.172C81.3523 471.397 89.0701 472.914 92.8349 478.618C94.2703 480.794 94.9291 483.147 94.9291 485.499C94.9291 489.521 93.0114 493.461 89.4819 495.814ZM121.695 133.045C116.918 137.996 109.118 138.255 104.165 133.468C99.1292 128.775 98.9645 120.978 103.659 115.944C108.365 110.992 116.165 110.733 121.189 115.438C123.706 117.955 125.059 121.225 125.059 124.494C125.059 127.599 123.965 130.622 121.695 133.045ZM133.518 543.788C128.824 548.74 120.942 548.987 116 544.282C111.047 539.59 110.788 531.709 115.483 526.758C120.189 521.724 128.071 521.559 133.024 526.252C135.624 528.687 136.871 531.956 136.871 535.226C136.871 538.331 135.789 541.354 133.518 543.788ZM169.261 92.7855C163.555 96.655 155.837 95.0672 152.06 89.3511C148.201 83.7292 149.719 76.0137 155.425 72.2383C161.119 68.3805 168.837 69.8978 172.614 75.6021C174.037 77.6956 174.708 80.1302 174.708 82.4825C174.708 86.5049 172.778 90.4449 169.261 92.7855ZM187.202 580.602C183.767 586.565 176.131 588.482 170.261 585.059C164.307 581.613 162.378 573.98 165.825 568.029C169.261 562.148 176.896 560.231 182.849 563.665C186.708 566.006 188.885 570.122 188.885 574.403C188.885 576.497 188.379 578.673 187.202 580.602ZM224.533 64.1112C218.168 66.6281 210.944 63.4408 208.509 56.9838C206.085 50.5973 209.273 43.4699 215.65 40.9647C222.027 38.5301 229.239 41.7174 231.674 48.0921C232.251 49.5975 232.509 51.1031 232.509 52.538C232.509 57.5601 229.486 62.2646 224.533 64.1112ZM247.769 604.595C245.674 611.134 238.71 614.745 232.168 612.651C225.627 610.558 222.027 603.595 224.121 597.044C226.215 590.505 233.18 586.976 239.721 588.999C245.004 590.669 248.357 595.621 248.357 600.819C248.357 602.078 248.192 603.336 247.769 604.595ZM284.852 48.4214C278.052 49.4329 271.757 44.7401 270.757 37.942C269.828 31.1439 274.534 24.8633 281.24 23.9342C288.029 22.9227 294.323 27.6273 295.335 34.4136C295.417 35.0017 295.499 35.5898 295.499 36.1778C295.499 42.2114 290.97 47.5864 284.852 48.4214ZM312.112 614.651C311.523 621.449 305.488 626.565 298.688 625.989C291.887 625.401 286.781 619.355 287.37 612.557C287.958 605.771 293.993 600.655 300.782 601.243C307.241 601.831 312.112 607.276 312.112 613.651C312.112 613.98 312.112 614.322 312.112 614.651ZM360.43 35.2486C359.842 42.1291 353.889 47.163 347.089 46.5749C340.218 45.9868 335.183 40.0356 335.771 33.2492C336.265 26.3688 342.312 21.3349 349.101 21.8289C355.56 22.4287 360.513 27.8743 360.513 34.2489C360.513 34.5783 360.43 34.9193 360.43 35.2486ZM366.548 624.048C359.76 625.06 353.466 620.273 352.454 613.487C351.536 606.783 356.23 600.49 363.031 599.479C369.819 598.55 376.113 603.254 377.043 610.052C377.125 610.64 377.207 611.217 377.207 611.805C377.207 617.838 372.678 623.213 366.548 624.048ZM432.15 607.018C425.773 609.546 418.644 606.359 416.209 599.902C413.691 593.527 416.961 586.388 423.338 583.871C429.715 581.448 436.927 584.636 439.362 591.093C439.868 592.516 440.197 594.021 440.197 595.445C440.197 600.49 437.091 605.183 432.15 607.018ZM482.893 80.0479C479.375 85.9051 471.739 87.928 465.869 84.3996C459.998 80.9652 458.068 73.3321 461.504 67.4632C465.033 61.5942 472.575 59.583 478.54 63.0997C482.399 65.3696 484.575 69.4744 484.575 73.7555C484.575 75.9314 484.069 78.0367 482.893 80.0479ZM492.458 575.991C486.763 579.767 479.034 578.179 475.269 572.474C471.41 566.853 472.998 559.125 478.704 555.268C484.41 551.504 492.128 553.092 495.905 558.714C497.328 560.889 497.999 563.242 497.999 565.594C497.999 569.616 496.07 573.568 492.458 575.991ZM533.141 121.472C528.364 126.423 520.564 126.682 515.611 121.895C510.658 117.202 510.411 109.404 515.105 104.359C519.811 99.4189 527.694 99.2543 532.635 103.947C535.235 106.382 536.494 109.651 536.494 112.921C536.494 116.026 535.412 119.049 533.141 121.472ZM544.294 532.298C539.6 537.249 531.8 537.402 526.764 532.709C521.811 528.016 521.564 520.136 526.353 515.185C531.047 510.245 538.847 509.986 543.883 514.761C546.4 517.196 547.741 520.466 547.741 523.735C547.741 526.758 546.565 529.863 544.294 532.298ZM572.907 173.057C567.201 176.832 559.483 175.327 555.706 169.623C551.847 163.918 553.447 156.191 559.154 152.428C564.848 148.652 572.566 150.158 576.342 155.874C577.766 157.967 578.436 160.39 578.436 162.742C578.436 166.776 576.507 170.634 572.907 173.057ZM585.154 478.019C581.707 483.982 574.072 485.911 568.201 482.476C562.248 478.948 560.318 471.315 563.754 465.446C567.283 459.577 574.836 457.566 580.789 461.082C584.648 463.34 586.919 467.539 586.919 471.738C586.919 473.914 586.319 476.102 585.154 478.019ZM600.249 232.111C593.79 234.628 586.66 231.358 584.225 224.972C581.79 218.597 584.99 211.387 591.354 208.953C597.813 206.518 604.943 209.717 607.378 216.174C607.967 217.598 608.214 219.103 608.214 220.538C608.214 225.56 605.202 230.253 600.249 232.111ZM612.837 416.13C610.731 422.669 603.767 426.268 597.225 424.175C590.778 422.081 587.166 415.119 589.178 408.579C591.272 402.04 598.237 398.429 604.778 400.534C610.061 402.205 613.414 407.156 613.414 412.355C613.414 413.613 613.249 414.872 612.837 416.13ZM613.755 295.846C606.955 296.775 600.755 292.071 599.743 285.284C598.825 278.486 603.519 272.194 610.32 271.277C617.108 270.277 623.402 275.052 624.332 281.85C624.402 282.438 624.402 283.014 624.402 283.603C624.402 289.648 619.967 294.929 613.755 295.846ZM626.167 349.619C625.579 356.5 619.543 361.522 612.743 360.934C605.955 360.357 600.837 354.312 601.425 347.514C602.014 340.716 608.049 335.612 614.849 336.2C621.296 336.788 626.25 342.233 626.25 348.608C626.25 348.949 626.167 349.278 626.167 349.619Z" fill="white"/>
</g>
<g filter="url(#filter2_dii_12463_131134)">
<path d="M414.357 56.5342C411.086 56.5342 408.055 55.3063 405.759 53.0112C403.475 50.7276 402.235 47.6981 402.235 44.508C402.235 41.3064 403.475 38.208 405.759 35.9129C410.259 31.4146 418.375 31.4146 422.874 35.9129C425.159 38.208 426.387 41.3064 426.387 44.508C426.387 47.6981 425.159 50.7276 422.874 53.0112C420.579 55.3063 417.548 56.5342 414.357 56.5342Z" fill="white"/>
</g>
<defs>
<filter id="filter0_dii_12463_131134" x="6.14062" y="5.92432" width="635.979" height="637.98" filterUnits="userSpaceOnUse" color-interpolation-filters="sRGB">
<feFlood flood-opacity="0" result="BackgroundImageFix"/>
<feColorMatrix in="SourceAlpha" type="matrix" values="0 0 0 0 0 0 0 0 0 0 0 0 0 0 0 0 0 0 127 0" result="hardAlpha"/>
<feOffset dy="2"/>
<feGaussianBlur stdDeviation="2"/>
<feComposite in2="hardAlpha" operator="out"/>
<feColorMatrix type="matrix" values="0 0 0 0 0.223529 0 0 0 0 0.447059 0 0 0 0 0.803922 0 0 0 0.2 0"/>
<feBlend mode="normal" in2="BackgroundImageFix" result="effect1_dropShadow_12463_131134"/>
<feBlend mode="normal" in="SourceGraphic" in2="effect1_dropShadow_12463_131134" result="shape"/>
<feColorMatrix in="SourceAlpha" type="matrix" values="0 0 0 0 0 0 0 0 0 0 0 0 0 0 0 0 0 0 127 0" result="hardAlpha"/>
<feOffset dy="4"/>
<feGaussianBlur stdDeviation="2"/>
<feComposite in2="hardAlpha" operator="arithmetic" k2="-1" k3="1"/>
<feColorMatrix type="matrix" values="0 0 0 0 0.976471 0 0 0 0 0.968627 0 0 0 0 0.952941 0 0 0 0.25 0"/>
<feBlend mode="normal" in2="shape" result="effect2_innerShadow_12463_131134"/>
<feColorMatrix in="SourceAlpha" type="matrix" values="0 0 0 0 0 0 0 0 0 0 0 0 0 0 0 0 0 0 127 0" result="hardAlpha"/>
<feOffset dy="-4"/>
<feGaussianBlur stdDeviation="2"/>
<feComposite in2="hardAlpha" operator="arithmetic" k2="-1" k3="1"/>
<feColorMatrix type="matrix" values="0 0 0 0 0 0 0 0 0 0 0 0 0 0 0 0 0 0 0.25 0"/>
<feBlend mode="normal" in2="effect2_innerShadow_12463_131134" result="effect3_innerShadow_12463_131134"/>
</filter>
<filter id="filter1_dii_12463_131134" x="18.0098" y="17.7954" width="612.24" height="614.238" filterUnits="userSpaceOnUse" color-interpolation-filters="sRGB">
<feFlood flood-opacity="0" result="BackgroundImageFix"/>
<feColorMatrix in="SourceAlpha" type="matrix" values="0 0 0 0 0 0 0 0 0 0 0 0 0 0 0 0 0 0 127 0" result="hardAlpha"/>
<feOffset dy="2"/>
<feGaussianBlur stdDeviation="2"/>
<feComposite in2="hardAlpha" operator="out"/>
<feColorMatrix type="matrix" values="0 0 0 0 0.223529 0 0 0 0 0.447059 0 0 0 0 0.803922 0 0 0 0.2 0"/>
<feBlend mode="normal" in2="BackgroundImageFix" result="effect1_dropShadow_12463_131134"/>
<feBlend mode="normal" in="SourceGraphic" in2="effect1_dropShadow_12463_131134" result="shape"/>
<feColorMatrix in="SourceAlpha" type="matrix" values="0 0 0 0 0 0 0 0 0 0 0 0 0 0 0 0 0 0 127 0" result="hardAlpha"/>
<feOffset dy="4"/>
<feGaussianBlur stdDeviation="2"/>
<feComposite in2="hardAlpha" operator="arithmetic" k2="-1" k3="1"/>
<feColorMatrix type="matrix" values="0 0 0 0 0.976471 0 0 0 0 0.968627 0 0 0 0 0.952941 0 0 0 0.25 0"/>
<feBlend mode="normal" in2="shape" result="effect2_innerShadow_12463_131134"/>
<feColorMatrix in="SourceAlpha" type="matrix" values="0 0 0 0 0 0 0 0 0 0 0 0 0 0 0 0 0 0 127 0" result="hardAlpha"/>
<feOffset dy="-4"/>
<feGaussianBlur stdDeviation="2"/>
<feComposite in2="hardAlpha" operator="arithmetic" k2="-1" k3="1"/>
<feColorMatrix type="matrix" values="0 0 0 0 0 0 0 0 0 0 0 0 0 0 0 0 0 0 0.25 0"/>
<feBlend mode="normal" in2="effect2_innerShadow_12463_131134" result="effect3_innerShadow_12463_131134"/>
</filter>
<filter id="filter2_dii_12463_131134" x="398.235" y="28.5392" width="32.1514" height="33.995" filterUnits="userSpaceOnUse" color-interpolation-filters="sRGB">
<feFlood flood-opacity="0" result="BackgroundImageFix"/>
<feColorMatrix in="SourceAlpha" type="matrix" values="0 0 0 0 0 0 0 0 0 0 0 0 0 0 0 0 0 0 127 0" result="hardAlpha"/>
<feOffset dy="2"/>
<feGaussianBlur stdDeviation="2"/>
<feComposite in2="hardAlpha" operator="out"/>
<feColorMatrix type="matrix" values="0 0 0 0 0.223529 0 0 0 0 0.447059 0 0 0 0 0.803922 0 0 0 0.2 0"/>
<feBlend mode="normal" in2="BackgroundImageFix" result="effect1_dropShadow_12463_131134"/>
<feBlend mode="normal" in="SourceGraphic" in2="effect1_dropShadow_12463_131134" result="shape"/>
<feColorMatrix in="SourceAlpha" type="matrix" values="0 0 0 0 0 0 0 0 0 0 0 0 0 0 0 0 0 0 127 0" result="hardAlpha"/>
<feOffset dy="4"/>
<feGaussianBlur stdDeviation="2"/>
<feComposite in2="hardAlpha" operator="arithmetic" k2="-1" k3="1"/>
<feColorMatrix type="matrix" values="0 0 0 0 0.976471 0 0 0 0 0.968627 0 0 0 0 0.952941 0 0 0 0.25 0"/>
<feBlend mode="normal" in2="shape" result="effect2_innerShadow_12463_131134"/>
<feColorMatrix in="SourceAlpha" type="matrix" values="0 0 0 0 0 0 0 0 0 0 0 0 0 0 0 0 0 0 127 0" result="hardAlpha"/>
<feOffset dy="-4"/>
<feGaussianBlur stdDeviation="2"/>
<feComposite in2="hardAlpha" operator="arithmetic" k2="-1" k3="1"/>
<feColorMatrix type="matrix" values="0 0 0 0 0 0 0 0 0 0 0 0 0 0 0 0 0 0 0.25 0"/>
<feBlend mode="normal" in2="effect2_innerShadow_12463_131134" result="effect3_innerShadow_12463_131134"/>
</filter>
<linearGradient id="paint0_linear_12463_131134" x1="324.13" y1="9.92432" x2="324.13" y2="637.904" gradientUnits="userSpaceOnUse">
<stop stop-color="#57EB78"/>
<stop offset="0.96875" stop-color="#32A264"/>
</linearGradient>
</defs>
</svg>
