<svg width="32" height="26" viewBox="0 0 32 26" fill="none" xmlns="http://www.w3.org/2000/svg">
<path d="M24.0762 22.2132C24.0762 22.2132 24.5422 22.8874 26.0265 23.8334C26.1375 23.9033 26.254 23.9755 26.3767 24.0485C26.8428 24.3274 27.3903 24.6241 28.0373 24.9317L28.1927 20.9705C28.1927 20.9705 30.2121 21.1258 31.9985 20.3491C31.7927 20.2466 30.9057 19.7689 29.6303 18.7802C29.5162 18.6924 29.3973 18.5992 29.2777 18.5022C28.7138 18.0486 28.0855 17.5025 27.4136 16.854C26.4063 18.5627 24.0762 22.2132 24.0762 22.2132Z" fill="url(#paint0_linear_13197_138994)"/>
<path d="M7.92231 21.9803C7.92231 21.9803 7.45629 22.6545 5.97202 23.6005C5.86095 23.6704 5.74445 23.7426 5.62173 23.8156C5.15571 24.0945 4.61203 24.3912 3.96115 24.6987L3.80581 20.7376C3.80581 20.7376 1.7864 20.8929 0 20.1162C0.205825 20.0137 1.09281 19.536 2.36815 18.5473C2.48232 18.4595 2.60116 18.3663 2.72077 18.2692C3.28465 17.8157 3.913 17.2696 4.58484 16.6211C5.59222 18.3298 7.92231 21.9803 7.92231 21.9803Z" fill="url(#paint1_linear_13197_138994)"/>
<path fill-rule="evenodd" clip-rule="evenodd" d="M16.0005 25.165C22.9496 25.165 28.583 19.5316 28.583 12.5825C28.583 5.63337 22.9496 0 16.0005 0C9.05134 0 3.41797 5.63337 3.41797 12.5825C3.41797 19.5316 9.05134 25.165 16.0005 25.165ZM16.0002 22.136C21.2764 22.136 25.5536 17.8588 25.5536 12.5826C25.5536 7.30647 21.2764 3.02927 16.0002 3.02927C10.724 3.02927 6.44686 7.30647 6.44686 12.5826C6.44686 17.8588 10.724 22.136 16.0002 22.136Z" fill="#84391B"/>
<mask id="mask0_13197_138994" style="mask-type:alpha" maskUnits="userSpaceOnUse" x="3" y="0" width="26" height="26">
<path fill-rule="evenodd" clip-rule="evenodd" d="M15.9985 25.165C22.9476 25.165 28.581 19.5316 28.581 12.5825C28.581 5.63337 22.9476 0 15.9985 0C9.04939 0 3.41602 5.63337 3.41602 12.5825C3.41602 19.5316 9.04939 25.165 15.9985 25.165ZM15.9983 22.136C21.2745 22.136 25.5517 17.8588 25.5517 12.5826C25.5517 7.30647 21.2745 3.02927 15.9983 3.02927C10.7221 3.02927 6.44491 7.30647 6.44491 12.5826C6.44491 17.8588 10.7221 22.136 15.9983 22.136Z" fill="#6C7E92"/>
</mask>
<g mask="url(#mask0_13197_138994)">
<g filter="url(#filter0_f_13197_138994)">
<ellipse cx="8.38462" cy="4.3069" rx="2.87378" ry="5.82523" transform="rotate(42.5525 8.38462 4.3069)" fill="#F9EEDE"/>
</g>
<g filter="url(#filter1_f_13197_138994)">
<ellipse cx="24.1963" cy="4.30665" rx="2.87378" ry="5.82523" transform="rotate(150 24.1963 4.30665)" fill="#DED6C3"/>
</g>
<g filter="url(#filter2_f_13197_138994)">
<ellipse cx="23.0811" cy="21.155" rx="2.87378" ry="5.82523" transform="rotate(-135 23.0811 21.155)" fill="#E0C9B8"/>
</g>
<g filter="url(#filter3_f_13197_138994)">
<ellipse cx="8.47925" cy="20.0675" rx="2.87378" ry="5.82523" transform="rotate(-45 8.47925 20.0675)" fill="#E29F50"/>
</g>
</g>
<circle cx="16.0006" cy="12.5827" r="9.55337" fill="url(#paint2_linear_13197_138994)"/>
<path fill-rule="evenodd" clip-rule="evenodd" d="M15.9985 22.8349C21.6607 22.8349 26.2509 18.2447 26.2509 12.5825C26.2509 6.92023 21.6607 2.33008 15.9985 2.33008C10.3362 2.33008 5.74609 6.92023 5.74609 12.5825C5.74609 18.2447 10.3362 22.8349 15.9985 22.8349ZM15.9999 22.1361C21.276 22.1361 25.5532 17.8589 25.5532 12.5827C25.5532 7.30651 21.276 3.02932 15.9999 3.02932C10.7237 3.02932 6.44649 7.30651 6.44649 12.5827C6.44649 17.8589 10.7237 22.1361 15.9999 22.1361Z" fill="url(#paint3_linear_13197_138994)"/>
<circle cx="16.0006" cy="12.5827" r="9.39803" stroke="url(#paint4_linear_13197_138994)" stroke-width="0.310679"/>
<path d="M15.8631 17.6348C15.3684 17.6348 14.8643 17.5788 14.351 17.4668C13.8469 17.3454 13.4082 17.1774 13.0349 16.9627C12.7922 16.8321 12.6242 16.6781 12.5308 16.5007C12.4468 16.314 12.4142 16.132 12.4328 15.9547C12.4608 15.7773 12.5355 15.6233 12.6568 15.4926C12.7782 15.3526 12.9322 15.264 13.1189 15.2266C13.3149 15.1893 13.5296 15.2266 13.7629 15.3386C14.1269 15.516 14.4723 15.642 14.799 15.7167C15.1257 15.7913 15.4524 15.8287 15.7791 15.8287C16.1524 15.8287 16.4651 15.782 16.7171 15.6887C16.9692 15.586 17.1605 15.4413 17.2912 15.2546C17.4219 15.0679 17.4872 14.8346 17.4872 14.5546C17.4872 14.1625 17.3519 13.8685 17.0812 13.6725C16.8105 13.4765 16.4138 13.3785 15.8911 13.3785H15.065C14.757 13.3785 14.519 13.3038 14.351 13.1545C14.1923 12.9958 14.1129 12.7811 14.1129 12.5104C14.1129 12.2304 14.1923 12.0157 14.351 11.8664C14.519 11.7077 14.757 11.6284 15.065 11.6284H15.6811C15.9984 11.6284 16.2644 11.5817 16.4791 11.4883C16.7031 11.3857 16.8758 11.2457 16.9972 11.0683C17.1278 10.891 17.1932 10.6716 17.1932 10.4103C17.1932 10.0369 17.0625 9.75222 16.8011 9.55621C16.5491 9.36019 16.1804 9.26219 15.6951 9.26219C15.3964 9.26219 15.1024 9.29952 14.813 9.37419C14.5236 9.43953 14.211 9.56087 13.8749 9.73822C13.6696 9.84089 13.4782 9.87356 13.3009 9.83623C13.1235 9.79889 12.9742 9.71489 12.8529 9.58421C12.7408 9.45353 12.6662 9.30419 12.6288 9.13618C12.6008 8.95883 12.6242 8.78148 12.6988 8.60414C12.7829 8.42679 12.9322 8.28211 13.1469 8.17011C13.5482 7.93676 13.9823 7.75941 14.449 7.63807C14.925 7.51673 15.4057 7.45605 15.8911 7.45605C16.6005 7.45605 17.2072 7.5634 17.7112 7.77808C18.2152 7.99276 18.6026 8.30078 18.8733 8.70214C19.144 9.09417 19.2793 9.57021 19.2793 10.1302C19.2793 10.5129 19.2047 10.863 19.0553 11.1803C18.906 11.4977 18.6959 11.7684 18.4253 11.9924C18.1639 12.2071 18.1245 12.2773 17.7418 12.3706C18.4045 12.4826 18.6399 12.6598 19.0133 13.0985C19.3867 13.5372 19.5733 14.0879 19.5733 14.7506C19.5733 15.3386 19.424 15.852 19.1253 16.2907C18.8266 16.7201 18.3973 17.0514 17.8372 17.2848C17.2865 17.5181 16.6285 17.6348 15.8631 17.6348Z" fill="#00123D"/>
<path opacity="0.15" d="M25.8645 4.77669C25.2733 5.48428 24.7354 6.03067 24.0793 6.6659C24.0307 6.71414 23.9821 6.76239 23.9335 6.81063C23.9012 6.8428 23.8769 6.86692 23.8445 6.89908C23.723 7.01166 23.6015 7.13227 23.4719 7.24484C23.4233 7.28505 23.3828 7.32525 23.3342 7.3735C23.3018 7.39762 23.2694 7.42978 23.2451 7.45391C23.2046 7.49411 23.1641 7.52627 23.1236 7.55844C18.8148 11.3457 13.3396 13.6534 7.55672 14.0716C7.50003 14.0716 7.45143 14.0796 7.39473 14.0796C7.35424 14.0796 7.31374 14.0876 7.27325 14.0876C7.20845 14.0876 7.15176 14.0957 7.08696 14.0957C6.87638 14.1037 6.6658 14.1198 6.45521 14.1198C6.39042 14.1198 6.31753 14.1278 6.25273 14.1278C6.09074 14.1359 5.92876 14.1359 5.77487 14.1359C5.02163 14.1359 4.2684 14.1118 3.50706 14.0474C3.45037 13.573 3.41797 13.0825 3.41797 12.592C3.41797 5.63666 9.09559 0 16.0934 0C19.244 0 22.0531 1.20914 24.2723 3.10679C24.8473 3.59728 25.3786 4.1897 25.8645 4.77669Z" fill="url(#paint5_linear_13197_138994)"/>
<defs>
<filter id="filter0_f_13197_138994" x="-0.670403" y="-4.9873" width="18.1103" height="18.5889" filterUnits="userSpaceOnUse" color-interpolation-filters="sRGB">
<feFlood flood-opacity="0" result="BackgroundImageFix"/>
<feBlend mode="normal" in="SourceGraphic" in2="BackgroundImageFix" result="shape"/>
<feGaussianBlur stdDeviation="2.29126" result="effect1_foregroundBlur_13197_138994"/>
</filter>
<filter id="filter1_f_13197_138994" x="15.7827" y="-5.52245" width="16.8271" height="19.6582" filterUnits="userSpaceOnUse" color-interpolation-filters="sRGB">
<feFlood flood-opacity="0" result="BackgroundImageFix"/>
<feBlend mode="normal" in="SourceGraphic" in2="BackgroundImageFix" result="shape"/>
<feGaussianBlur stdDeviation="2.29126" result="effect1_foregroundBlur_13197_138994"/>
</filter>
<filter id="filter2_f_13197_138994" x="13.9038" y="11.9785" width="18.3545" height="18.353" filterUnits="userSpaceOnUse" color-interpolation-filters="sRGB">
<feFlood flood-opacity="0" result="BackgroundImageFix"/>
<feBlend mode="normal" in="SourceGraphic" in2="BackgroundImageFix" result="shape"/>
<feGaussianBlur stdDeviation="2.29126" result="effect1_foregroundBlur_13197_138994"/>
</filter>
<filter id="filter3_f_13197_138994" x="-0.697746" y="10.8911" width="18.3545" height="18.353" filterUnits="userSpaceOnUse" color-interpolation-filters="sRGB">
<feFlood flood-opacity="0" result="BackgroundImageFix"/>
<feBlend mode="normal" in="SourceGraphic" in2="BackgroundImageFix" result="shape"/>
<feGaussianBlur stdDeviation="2.29126" result="effect1_foregroundBlur_13197_138994"/>
</filter>
<linearGradient id="paint0_linear_13197_138994" x1="30.261" y1="22.8204" x2="25.5439" y2="19.5175" gradientUnits="userSpaceOnUse">
<stop stop-color="#5C8DFF"/>
<stop offset="0.405" stop-color="#527DE3"/>
<stop offset="0.5279" stop-color="#7798E5"/>
<stop offset="0.6172" stop-color="#4366B9"/>
<stop offset="1" stop-color="#293F73"/>
</linearGradient>
<linearGradient id="paint1_linear_13197_138994" x1="2.60193" y1="22.7182" x2="6.13591" y2="19.8056" gradientUnits="userSpaceOnUse">
<stop stop-color="#5C8DFF"/>
<stop offset="0.405" stop-color="#527DE3"/>
<stop offset="0.5279" stop-color="#7798E5"/>
<stop offset="0.6172" stop-color="#4366B9"/>
<stop offset="1" stop-color="#293F73"/>
</linearGradient>
<linearGradient id="paint2_linear_13197_138994" x1="16.0006" y1="3.0293" x2="16.0006" y2="22.136" gradientUnits="userSpaceOnUse">
<stop stop-color="#C2D4FF"/>
<stop offset="0.484375" stop-color="#87A2E0"/>
<stop offset="1" stop-color="#5576C2"/>
</linearGradient>
<linearGradient id="paint3_linear_13197_138994" x1="15.9985" y1="2.33008" x2="15.9985" y2="22.8349" gradientUnits="userSpaceOnUse">
<stop stop-color="#3F221F"/>
<stop offset="1" stop-color="#E3A763"/>
</linearGradient>
<linearGradient id="paint4_linear_13197_138994" x1="16.0006" y1="3.02676" x2="16.0006" y2="22.1335" gradientUnits="userSpaceOnUse">
<stop stop-color="#87A2E0"/>
<stop offset="1" stop-color="#203E85"/>
</linearGradient>
<linearGradient id="paint5_linear_13197_138994" x1="9.34906" y1="1.93973" x2="16.457" y2="11.8888" gradientUnits="userSpaceOnUse">
<stop offset="0.5084" stop-color="white" stop-opacity="0"/>
<stop offset="1" stop-color="white"/>
</linearGradient>
</defs>
</svg>
