<svg width="96" height="96" viewBox="0 0 96 96" fill="none" xmlns="http://www.w3.org/2000/svg">
<rect width="96" height="96" rx="24" fill="url(#paint0_linear_3166_6054)"/>
<path opacity="0.5" d="M33.2491 48C33.2491 45.1293 34.0891 42.4482 35.5235 40.1533C35.7811 39.7413 35.7373 39.2022 35.3937 38.8586L23.7776 27.2425C23.3676 26.8324 22.6947 26.8552 22.3289 27.3052C17.7288 32.9639 15 40.1671 15 48C15 55.8311 17.7276 63.0328 22.2972 68.6909C22.662 69.1427 23.336 69.167 23.7471 68.7569L35.3922 57.1413C35.7366 56.7978 35.7807 56.2582 35.523 55.8457C34.0888 53.551 33.2491 50.8703 33.2491 48Z" fill="#212433"/>
<path d="M48.0993 33.1501C50.97 33.1501 53.651 33.9901 55.9459 35.4245C56.358 35.6821 56.8971 35.6383 57.2407 35.2947L68.7599 23.7755C69.1692 23.3662 69.1475 22.6949 68.6993 22.3287C63.0691 17.7287 55.8645 15 48.0003 15C40.1692 15 32.9976 17.7275 27.3423 22.297C26.8906 22.662 26.8663 23.336 27.2763 23.7471L38.8535 35.3537C39.1994 35.7005 39.7437 35.7426 40.157 35.4797C42.457 34.0165 45.1698 33.1501 48.0993 33.1501Z" fill="#212433"/>
<path opacity="0.5" d="M73.3619 26.9267C73.1758 26.7039 72.8391 26.6915 72.6335 26.8965L60.4447 39.0541C60.2713 39.2271 60.2495 39.4997 60.3866 39.7026C61.9902 42.0764 62.9491 44.9184 62.9491 48C62.9491 51.0819 61.9901 53.924 60.3862 56.298C60.2493 56.5007 60.2709 56.773 60.4439 56.946L72.6335 69.1356C72.839 69.3411 73.1761 69.3289 73.3623 69.1058C78.1367 63.3869 81.0001 56.0238 81.0001 48C81.0001 39.976 78.1365 32.6443 73.3619 26.9267Z" fill="#212433"/>
<path d="M48.0991 62.8499C45.0172 62.8499 42.1751 61.8909 39.8012 60.2871C39.5984 60.1502 39.3262 60.1718 39.1532 60.3448L26.8645 72.6334C26.6591 72.8389 26.6712 73.176 26.8943 73.3622C32.6133 78.1366 39.9763 81 48.0001 81C56.0572 81 63.4219 78.1358 69.1104 73.3295C69.3315 73.1427 69.3426 72.8074 69.1379 72.6027L56.9433 60.4081C56.7715 60.2363 56.5015 60.2136 56.2991 60.3479C53.9279 61.9207 51.1184 62.8499 48.0991 62.8499Z" fill="#212433"/>
<defs>
<linearGradient id="paint0_linear_3166_6054" x1="0" y1="96" x2="104.62" y2="85.4464" gradientUnits="userSpaceOnUse">
<stop stop-color="#9945FF"/>
<stop offset="1" stop-color="#B9F8FD"/>
</linearGradient>
</defs>
</svg>
