<svg width="137" height="204" viewBox="0 0 137 204" fill="none" xmlns="http://www.w3.org/2000/svg">
<path d="M136.104 141.019C136.104 141.099 136.104 141.178 136.104 141.257C136.104 141.337 136.104 141.416 136.024 141.416C136.024 141.496 136.024 141.575 135.945 141.654C135.945 141.734 135.865 141.734 135.865 141.813C135.865 141.892 135.786 141.972 135.786 142.051C135.786 142.131 135.707 142.131 135.707 142.21C135.627 142.289 135.627 142.369 135.548 142.448C135.548 142.528 135.468 142.528 135.468 142.607C135.389 142.686 135.31 142.845 135.151 142.925L135.071 143.004C134.992 143.083 134.913 143.083 134.833 143.163C134.754 143.242 134.674 143.242 134.595 143.322C134.516 143.401 134.436 143.401 134.357 143.48C134.277 143.56 134.198 143.56 134.119 143.639L73.3813 178.97C73.1432 179.129 72.9844 179.208 72.7462 179.288C72.6668 179.288 72.5874 179.367 72.508 179.367C72.3492 179.446 72.111 179.526 71.9522 179.605C71.8728 179.605 71.7934 179.685 71.714 179.685C71.6346 179.685 71.4758 179.764 71.3171 179.764C71.2377 179.764 71.1583 179.843 70.9995 179.843C70.8407 179.843 70.7613 179.923 70.6025 179.923C70.5231 179.923 70.4437 179.923 70.3643 180.002C70.1261 180.082 69.8086 180.082 69.5704 180.082C69.491 180.082 69.4116 180.082 69.3322 180.082C69.1734 180.082 69.0146 180.082 68.8558 180.082C68.7764 180.082 68.6176 180.082 68.5382 180.082C68.3794 180.082 68.3 180.082 68.1413 180.082C68.0619 180.082 67.9031 180.082 67.8237 180.082C67.6649 180.082 67.5855 180.082 67.4267 180.082C67.3473 180.082 67.1885 180.082 67.1091 180.082C66.9503 180.082 66.8709 180.082 66.7915 180.002C66.7121 180.002 66.5534 180.002 66.474 179.923C66.3152 179.923 66.2358 179.843 66.077 179.843C65.9976 179.843 65.9182 179.843 65.7594 179.764C65.6006 179.764 65.4418 179.685 65.283 179.685C65.2036 179.685 65.1242 179.605 65.0448 179.605C64.8067 179.526 64.5685 179.446 64.3303 179.367C64.1715 179.288 64.0921 179.288 64.0127 179.208C63.9333 179.208 63.8539 179.129 63.8539 179.129C63.6951 179.049 63.5363 178.97 63.3775 178.891L2.24328 143.56C0.893561 142.766 0.179005 141.734 0.179005 140.622L0.0996094 164.6C0.0996094 165.632 0.814166 166.743 2.16388 167.537L63.2981 202.868C63.4569 202.947 63.6157 203.027 63.7745 203.106C63.8539 203.106 63.9333 203.186 63.9333 203.186C64.0127 203.265 64.1715 203.265 64.2509 203.344C64.2509 203.344 64.2509 203.344 64.3303 203.344C64.5685 203.424 64.8067 203.503 65.0448 203.583C65.0448 203.583 65.0448 203.583 65.1242 203.583C65.2036 203.583 65.283 203.583 65.283 203.662C65.4418 203.662 65.6006 203.741 65.7594 203.741H65.8388C65.9182 203.741 65.9976 203.741 65.9976 203.741C66.1564 203.741 66.2358 203.821 66.3946 203.821C66.474 203.821 66.474 203.821 66.5533 203.821C66.6327 203.821 66.6327 203.821 66.7121 203.821C66.7915 203.821 66.9503 203.821 67.0297 203.9C67.1091 203.9 67.1091 203.9 67.1885 203.9C67.2679 203.9 67.2679 203.9 67.3473 203.9C67.5061 203.9 67.5855 203.9 67.7443 203.9C67.8237 203.9 67.8237 203.9 67.9031 203.9C67.9825 203.9 67.9825 203.9 68.0619 203.9C68.2206 203.9 68.3 203.9 68.4588 203.9C68.5382 203.9 68.6176 203.9 68.6176 203.9H68.697C68.8558 203.9 69.0146 203.9 69.1734 203.9C69.2528 203.9 69.3322 203.9 69.3322 203.9C69.3322 203.9 69.3322 203.9 69.4116 203.9C69.6498 203.9 69.9673 203.821 70.2055 203.821C70.2055 203.821 70.2055 203.821 70.2849 203.821C70.3643 203.821 70.4437 203.821 70.5231 203.741C70.6819 203.741 70.7613 203.662 70.9201 203.662C70.9995 203.662 71.0789 203.583 71.2377 203.583C71.3965 203.583 71.4758 203.503 71.6346 203.503H71.714C71.7934 203.503 71.7934 203.503 71.8728 203.424C72.0316 203.344 72.2698 203.265 72.4286 203.186C72.508 203.186 72.5874 203.106 72.6668 203.106C72.905 203.027 73.1431 202.868 73.3019 202.789L134.039 167.458C134.039 167.458 134.119 167.458 134.119 167.378C134.198 167.378 134.277 167.299 134.277 167.22C134.357 167.14 134.436 167.14 134.516 167.061C134.595 166.981 134.674 166.981 134.674 166.902C134.754 166.823 134.833 166.823 134.913 166.743C134.913 166.743 134.913 166.743 134.992 166.743L135.071 166.664C135.151 166.584 135.31 166.426 135.389 166.346L135.468 166.267C135.468 166.267 135.468 166.187 135.548 166.187C135.627 166.108 135.627 166.029 135.707 165.949L135.786 165.87C135.786 165.87 135.786 165.87 135.786 165.79C135.786 165.711 135.865 165.632 135.865 165.552C135.865 165.473 135.945 165.473 135.945 165.393C135.945 165.393 135.945 165.393 135.945 165.314C135.945 165.235 136.024 165.155 136.024 165.076C136.024 164.996 136.024 164.996 136.104 164.917C136.104 164.838 136.104 164.758 136.104 164.679C136.104 164.6 136.104 164.6 136.104 164.52V164.441L136.183 140.463C136.104 140.86 136.104 140.94 136.104 141.019Z" fill="url(#paint0_linear_12924_136883)"/>
<path d="M134.098 137.912C136.878 139.506 136.878 142.136 134.098 143.73L73.3251 179.196C70.6241 180.79 66.096 180.79 63.3155 179.196L2.14588 143.73C-0.634563 142.136 -0.634563 139.506 2.14588 137.912L62.9183 102.445C65.6193 100.852 70.1475 100.852 72.9279 102.445L134.098 137.912Z" fill="url(#paint1_linear_12924_136883)"/>
<path d="M119.43 138.558C121.574 139.828 121.574 141.813 119.43 143.083L72.1903 170.554C70.0466 171.824 66.5533 171.824 64.4096 170.554L16.8519 143.083C14.7082 141.813 14.7082 139.828 16.8519 138.558L64.092 111.087C66.2357 109.817 69.7291 109.817 71.8727 111.087L119.43 138.558Z" fill="url(#paint2_linear_12924_136883)"/>
<path d="M103.313 139.272C104.742 140.146 104.822 141.496 103.313 142.369L70.9199 161.186C69.4908 162.059 67.0295 162.059 65.6004 161.186L32.969 142.369C31.5399 141.496 31.4605 140.146 32.969 139.272L65.3622 120.456C66.7913 119.582 69.2526 119.582 70.6817 120.456L103.313 139.272Z" fill="url(#paint3_linear_12924_136883)"/>
<path d="M70.9198 161.186L99.6608 144.513L70.6816 127.84C69.2525 126.966 66.7913 126.966 65.3621 127.84L36.6211 144.513L65.6003 161.186C67.0294 161.979 69.4113 161.979 70.9198 161.186Z" fill="url(#paint4_linear_12924_136883)"/>
<path d="M132.849 116.406C132.849 116.485 132.849 116.565 132.849 116.644C132.849 116.724 132.849 116.724 132.769 116.803C132.769 116.882 132.769 116.962 132.69 117.041C132.69 117.121 132.611 117.121 132.611 117.2C132.611 117.279 132.531 117.359 132.531 117.438C132.531 117.518 132.452 117.518 132.452 117.597C132.372 117.676 132.372 117.756 132.293 117.835C132.293 117.915 132.214 117.915 132.214 117.994C132.134 118.073 132.055 118.232 131.896 118.312L131.817 118.391C131.737 118.47 131.658 118.47 131.579 118.55C131.499 118.629 131.42 118.629 131.42 118.709C131.34 118.788 131.261 118.788 131.182 118.867C131.102 118.947 131.023 118.947 130.943 119.026L73.0643 152.69C72.8261 152.769 72.6673 152.928 72.4292 153.007C72.3498 153.007 72.2704 153.087 72.2704 153.087C72.1116 153.166 71.9528 153.245 71.7146 153.245C71.6352 153.245 71.5558 153.325 71.4764 153.325C71.397 153.325 71.2382 153.404 71.1588 153.404C71.0794 153.404 71 153.484 70.9206 153.484C70.7619 153.484 70.6825 153.563 70.5237 153.563C70.4443 153.563 70.3649 153.563 70.2855 153.642C70.0473 153.722 69.8091 153.722 69.4915 153.722C69.4121 153.722 69.3327 153.722 69.2533 153.722C69.0946 153.722 68.9358 153.722 68.777 153.722C68.6976 153.722 68.6182 153.722 68.4594 153.722C68.3006 153.722 68.2212 153.722 68.0624 153.722C67.983 153.722 67.8242 153.722 67.7448 153.722C67.6654 153.722 67.5067 153.722 67.4273 153.722C67.3479 153.722 67.1891 153.722 67.1097 153.722C67.0303 153.722 66.8715 153.722 66.7921 153.722C66.7127 153.722 66.5539 153.722 66.4745 153.642C66.3157 153.642 66.2363 153.563 66.0775 153.563C65.9981 153.563 65.9188 153.563 65.76 153.484C65.6012 153.484 65.4424 153.404 65.363 153.404C65.2836 153.404 65.2042 153.404 65.1248 153.325C64.8866 153.245 64.6484 153.166 64.4102 153.087C64.3308 153.007 64.1721 153.007 64.0927 152.928C64.0133 152.928 64.0133 152.848 63.9339 152.848C63.7751 152.769 63.6163 152.69 63.4575 152.61L5.18146 118.947C3.83174 118.153 3.19658 117.2 3.19658 116.168L3.11719 139.034C3.11719 140.066 3.75235 141.019 5.10207 141.813L63.3781 175.476C63.5369 175.555 63.6957 175.635 63.8545 175.714C63.9339 175.714 63.9339 175.794 64.0133 175.794C64.0927 175.873 64.1721 175.873 64.3308 175.952C64.569 176.032 64.8072 176.111 65.0454 176.191C65.0454 176.191 65.0454 176.191 65.1248 176.191C65.2042 176.191 65.2042 176.191 65.2836 176.27C65.4424 176.27 65.6012 176.349 65.6806 176.349H65.76C65.8394 176.349 65.8394 176.349 65.9188 176.349C65.9981 176.349 66.1569 176.429 66.3157 176.429C66.3951 176.429 66.3951 176.429 66.4745 176.429C66.5539 176.429 66.5539 176.429 66.6333 176.429C66.7127 176.429 66.8715 176.429 66.9509 176.429C67.0303 176.429 67.0303 176.429 67.1097 176.429C67.1891 176.429 67.1891 176.429 67.2685 176.429C67.3479 176.429 67.5067 176.429 67.586 176.429C67.6654 176.429 67.6654 176.429 67.7448 176.429C67.8242 176.429 67.8242 176.429 67.9036 176.429C68.0624 176.429 68.1418 176.429 68.3006 176.429C68.38 176.429 68.4594 176.429 68.4594 176.429H68.5388C68.6976 176.429 68.8564 176.429 69.0152 176.429C69.0946 176.429 69.174 176.429 69.174 176.429C69.174 176.429 69.174 176.429 69.2533 176.429C69.4915 176.429 69.7297 176.349 70.0473 176.349C70.0473 176.349 70.0473 176.349 70.1267 176.349C70.2061 176.349 70.2855 176.349 70.3649 176.27C70.5237 176.27 70.6031 176.191 70.7619 176.191C70.8412 176.191 70.9206 176.111 71 176.111C71.0794 176.111 71.2382 176.032 71.3176 176.032H71.397C71.4764 176.032 71.4764 176.032 71.5558 175.952C71.7146 175.873 71.8734 175.794 72.1116 175.794C72.191 175.794 72.2704 175.714 72.2704 175.714C72.5085 175.635 72.6673 175.476 72.9055 175.397L130.785 141.733C130.785 141.733 130.864 141.733 130.864 141.654C130.943 141.654 130.943 141.574 131.023 141.574C131.102 141.495 131.182 141.495 131.261 141.416C131.34 141.336 131.42 141.336 131.42 141.257C131.499 141.177 131.579 141.177 131.658 141.098L131.737 141.019C131.817 140.939 131.976 140.78 132.055 140.701L132.134 140.622C132.134 140.622 132.134 140.542 132.214 140.542C132.293 140.463 132.293 140.383 132.372 140.304L132.452 140.225C132.452 140.225 132.452 140.225 132.452 140.145C132.452 140.066 132.531 139.986 132.531 139.907C132.531 139.828 132.611 139.828 132.611 139.748C132.611 139.748 132.611 139.748 132.611 139.669C132.611 139.589 132.69 139.51 132.69 139.431C132.69 139.351 132.69 139.351 132.69 139.272C132.69 139.192 132.69 139.113 132.69 139.034C132.69 138.954 132.69 138.954 132.69 138.875C132.69 138.875 132.69 138.875 132.69 138.795L132.769 115.93C132.849 116.247 132.849 116.327 132.849 116.406Z" fill="url(#paint5_linear_12924_136883)"/>
<path d="M131.001 113.554C133.624 115.069 133.624 117.542 131.001 119.058L73.0602 152.88C70.4373 154.396 66.1454 154.396 63.5225 152.88L5.18394 119.058C2.56108 117.542 2.56108 115.069 5.18394 113.554L63.1251 79.731C65.748 78.2153 70.0399 78.2153 72.6628 79.731L131.001 113.554Z" fill="url(#paint6_linear_12924_136883)"/>
<path d="M136.025 86.3951C136.025 86.4745 136.025 86.5539 136.025 86.6333C136.025 86.7127 136.025 86.7921 135.946 86.7921C135.946 86.8715 135.946 86.9509 135.867 87.0303C135.867 87.1097 135.787 87.1097 135.787 87.1891C135.787 87.2685 135.708 87.3479 135.708 87.4273C135.708 87.5067 135.628 87.5067 135.628 87.586C135.549 87.6654 135.549 87.7448 135.47 87.8242C135.47 87.9036 135.39 87.9036 135.39 87.983C135.311 88.0624 135.231 88.2212 135.073 88.3006L134.993 88.38C134.914 88.4594 134.834 88.4594 134.755 88.5388C134.676 88.6182 134.596 88.6182 134.517 88.6976C134.437 88.777 134.358 88.777 134.279 88.8564C134.199 88.9358 134.12 88.9358 134.04 89.0152L73.3032 124.346C73.065 124.505 72.9062 124.584 72.668 124.664C72.5887 124.664 72.5093 124.743 72.4299 124.743C72.2711 124.822 72.0329 124.902 71.8741 124.981C71.7947 124.981 71.7153 125.061 71.6359 125.061C71.5565 125.061 71.3977 125.14 71.2389 125.14C71.1595 125.14 71.0801 125.219 70.9214 125.219C70.7626 125.219 70.6832 125.299 70.5244 125.299C70.445 125.299 70.3656 125.299 70.2862 125.378C70.048 125.458 69.7304 125.458 69.4922 125.458C69.4128 125.458 69.3335 125.458 69.2541 125.458C69.0953 125.458 68.9365 125.458 68.7777 125.458C68.6983 125.458 68.5395 125.458 68.4601 125.458C68.3013 125.458 68.2219 125.458 68.0631 125.458C67.9837 125.458 67.8249 125.458 67.7456 125.458C67.5868 125.458 67.5074 125.458 67.3486 125.458C67.2692 125.458 67.1104 125.458 67.031 125.458C66.8722 125.458 66.7928 125.458 66.7134 125.378C66.634 125.378 66.4752 125.378 66.3958 125.299C66.237 125.299 66.1576 125.219 65.9989 125.219C65.9195 125.219 65.8401 125.219 65.6813 125.14C65.5225 125.14 65.3637 125.061 65.2049 125.061C65.1255 125.061 65.0461 124.981 64.9667 124.981C64.7285 124.902 64.4903 124.822 64.2522 124.743C64.0934 124.664 64.014 124.664 63.9346 124.584C63.8552 124.584 63.7758 124.505 63.7758 124.505C63.617 124.425 63.4582 124.346 63.2994 124.267L2.16515 88.9358C0.815436 88.1418 0.10088 87.1097 0.10088 85.9981L0.0214844 109.975C0.0214844 111.008 0.736041 112.119 2.08576 112.913L63.22 148.244C63.3788 148.323 63.5376 148.403 63.6964 148.482C63.7758 148.482 63.8552 148.562 63.8552 148.562C63.9346 148.641 64.0934 148.641 64.1728 148.72C64.1728 148.72 64.1728 148.72 64.2522 148.72C64.4903 148.8 64.7285 148.879 64.9667 148.958C64.9667 148.958 64.9667 148.958 65.0461 148.958C65.1255 148.958 65.2049 148.958 65.2049 149.038C65.3637 149.038 65.5225 149.117 65.6813 149.117H65.7607C65.8401 149.117 65.9195 149.117 65.9195 149.117C66.0782 149.117 66.1576 149.197 66.3164 149.197C66.3958 149.197 66.3958 149.197 66.4752 149.197C66.5546 149.197 66.5546 149.197 66.634 149.197C66.7134 149.197 66.8722 149.197 66.9516 149.276C67.031 149.276 67.031 149.276 67.1104 149.276C67.1898 149.276 67.1898 149.276 67.2692 149.276C67.428 149.276 67.5074 149.276 67.6662 149.276C67.7455 149.276 67.7456 149.276 67.8249 149.276C67.9043 149.276 67.9043 149.276 67.9837 149.276C68.1425 149.276 68.2219 149.276 68.3807 149.276C68.4601 149.276 68.5395 149.276 68.5395 149.276H68.6189C68.7777 149.276 68.9365 149.276 69.0953 149.276C69.1747 149.276 69.2541 149.276 69.2541 149.276C69.2541 149.276 69.2541 149.276 69.3335 149.276C69.5716 149.276 69.8892 149.197 70.1274 149.197C70.1274 149.197 70.1274 149.197 70.2068 149.197C70.2862 149.197 70.3656 149.197 70.445 149.117C70.6038 149.117 70.6832 149.038 70.842 149.038C70.9213 149.038 71.0007 148.958 71.1595 148.958C71.3183 148.958 71.3977 148.879 71.5565 148.879H71.6359C71.7153 148.879 71.7153 148.879 71.7947 148.8C71.9535 148.72 72.1917 148.641 72.3505 148.562C72.4299 148.562 72.5093 148.482 72.5887 148.482C72.8268 148.403 73.065 148.244 73.2238 148.165L133.961 112.834C133.961 112.834 134.04 112.834 134.04 112.754C134.12 112.754 134.199 112.675 134.199 112.596C134.279 112.516 134.358 112.516 134.437 112.437C134.517 112.357 134.596 112.357 134.596 112.278C134.676 112.199 134.755 112.199 134.834 112.119C134.834 112.119 134.834 112.119 134.914 112.119L134.993 112.04C135.073 111.96 135.231 111.802 135.311 111.722L135.39 111.643C135.39 111.643 135.39 111.563 135.47 111.563C135.549 111.484 135.549 111.405 135.628 111.325L135.708 111.246C135.708 111.246 135.708 111.246 135.708 111.166C135.708 111.087 135.787 111.008 135.787 110.928C135.787 110.849 135.867 110.849 135.867 110.769C135.867 110.769 135.867 110.769 135.867 110.69C135.867 110.611 135.946 110.531 135.946 110.452C135.946 110.372 135.946 110.372 136.025 110.293C136.025 110.214 136.025 110.134 136.025 110.055C136.025 109.975 136.025 109.975 136.025 109.896V109.817L136.105 85.8394C136.025 86.2363 136.025 86.3157 136.025 86.3951Z" fill="url(#paint7_linear_12924_136883)"/>
<path d="M133.959 83.2986C136.738 84.8865 136.738 87.5066 133.959 89.0945L73.2222 124.425C70.5227 126.013 65.9972 126.013 63.2184 124.425L2.08412 89.0945C-0.694708 87.5066 -0.694708 84.8865 2.08412 83.2986L62.8214 47.9678C65.5209 46.3799 70.0464 46.3799 72.8252 47.9678L133.959 83.2986Z" fill="url(#paint8_linear_12924_136883)"/>
<path d="M119.35 83.9337C121.494 85.204 121.494 87.1889 119.35 88.4592L72.1102 115.93C69.9666 117.2 66.4732 117.2 64.3295 115.93L16.7718 88.4592C14.6281 87.1889 14.6281 85.204 16.7718 83.9337L64.0119 56.463C66.1556 55.1927 69.649 55.1927 71.7927 56.463L119.35 83.9337Z" fill="url(#paint9_linear_12924_136883)"/>
<path d="M103.233 84.6484C104.662 85.5218 104.742 86.8715 103.233 87.7448L70.8398 106.561C69.4107 107.435 66.9494 107.435 65.5203 106.561L32.8889 87.7448C31.4598 86.8715 31.3804 85.5218 32.8889 84.6484L65.2821 65.8318C66.7113 64.9584 69.1725 64.9584 70.6016 65.8318L103.233 84.6484Z" fill="url(#paint10_linear_12924_136883)"/>
<path d="M70.8417 106.562L99.5827 89.8885L70.6035 73.2156C69.1744 72.3422 66.7131 72.3422 65.284 73.2156L36.543 89.8885L65.5222 106.562C66.9513 107.355 69.3332 107.355 70.8417 106.562Z" fill="url(#paint11_linear_12924_136883)"/>
<path d="M17.5466 109.284C18.8169 109.998 19.8491 111.745 19.8491 113.253C19.8491 114.762 18.8169 115.318 17.5466 114.524C16.2763 113.809 15.2441 112.062 15.2441 110.554C15.2441 109.125 16.2763 108.569 17.5466 109.284Z" fill="url(#paint12_linear_12924_136883)"/>
<g opacity="0.47">
<path d="M41.6813 123.813C42.5547 124.369 43.3486 125.639 43.3486 126.671C43.3486 127.703 42.6341 128.1 41.6813 127.624L23.1028 116.906C22.2295 116.35 21.4355 115.079 21.4355 114.047C21.4355 113.015 22.1501 112.618 23.1028 113.095L41.6813 123.813Z" fill="url(#paint13_linear_12924_136883)"/>
</g>
<path d="M116.434 111.245C115.164 111.959 114.131 113.706 114.131 115.214C114.131 116.723 115.164 117.279 116.434 116.485C117.704 115.77 118.736 114.023 118.736 112.515C118.736 111.086 117.704 110.53 116.434 111.245Z" fill="url(#paint14_linear_12924_136883)"/>
<g opacity="0.47">
<path d="M92.2992 125.774C91.4258 126.33 90.6319 127.6 90.6319 128.632C90.6319 129.664 91.3464 130.061 92.2992 129.585L110.878 118.866C111.751 118.311 112.545 117.04 112.545 116.008C112.545 114.976 111.83 114.579 110.878 115.055L92.2992 125.774Z" fill="url(#paint15_linear_12924_136883)"/>
</g>
<path d="M17.4665 162.392C18.7368 163.107 19.769 164.853 19.769 166.362C19.769 167.791 18.7368 168.426 17.4665 167.632C16.1962 166.918 15.1641 165.171 15.1641 163.662C15.1641 162.233 16.1962 161.677 17.4665 162.392Z" fill="url(#paint16_linear_12924_136883)"/>
<g opacity="0.47">
<path d="M41.6012 176.921C42.4746 177.477 43.2685 178.747 43.2685 179.78C43.2685 180.812 42.554 181.209 41.6012 180.732L23.0228 170.014C22.1494 169.458 21.3555 168.188 21.3555 167.156C21.3555 166.124 22.07 165.727 23.0228 166.203L41.6012 176.921Z" fill="url(#paint17_linear_12924_136883)"/>
</g>
<path d="M118.737 163.067C117.466 163.781 116.434 165.528 116.434 167.037C116.434 168.466 117.466 169.101 118.737 168.307C120.007 167.592 121.039 165.846 121.039 164.337C121.039 162.908 120.007 162.352 118.737 163.067Z" fill="url(#paint18_linear_12924_136883)"/>
<g opacity="0.47">
<path d="M94.6019 177.596C93.7285 178.152 92.9346 179.422 92.9346 180.454C92.9346 181.486 93.6492 181.883 94.6019 181.407L113.18 170.689C114.054 170.133 114.848 168.863 114.848 167.83C114.848 166.798 114.133 166.401 113.18 166.878L94.6019 177.596Z" fill="url(#paint19_linear_12924_136883)"/>
</g>
<path d="M73.0078 115.859L122.686 87.3453C124.706 86.1856 123.856 79.211 123.586 78.8236L68.4536 49.3779L13.0119 79.6705C13.0119 79.6705 12.9504 86.3952 14.9713 87.5572L64.2835 115.858C65.6096 116.62 67.1141 117.021 68.6456 117.021C70.177 117.021 71.6816 116.62 73.0078 115.859Z" fill="url(#paint20_linear_12924_136883)"/>
<path d="M72.5474 110.901L122.225 82.3867C122.685 82.1216 123.067 81.741 123.332 81.2831C123.597 80.8252 123.737 80.3061 123.737 79.7776C123.737 79.2492 123.597 78.7301 123.332 78.2722C123.067 77.8143 122.685 77.4337 122.225 77.1686L68.5497 46.3608L14.5116 77.3781C14.0519 77.6433 13.6702 78.0239 13.4049 78.4817C13.1396 78.9396 13 79.4588 13 79.9872C13 80.5156 13.1396 81.0348 13.4049 81.4926C13.6702 81.9505 14.0519 82.3311 14.5116 82.5962L63.8223 110.9C65.1485 111.661 66.6531 112.062 68.1847 112.062C69.7163 112.063 71.221 111.662 72.5474 110.901Z" fill="url(#paint21_linear_12924_136883)"/>
<path d="M83.96 88.3375C75.2356 93.3326 61.0452 93.3064 52.2674 88.2804C43.4895 83.2544 43.444 75.1304 52.1675 70.1377C60.8911 65.145 75.0823 65.1688 83.8602 70.1948C92.638 75.2208 92.6811 83.3433 83.96 88.3375Z" fill="url(#paint22_linear_12924_136883)"/>
<path d="M83.96 85.7848C75.2356 90.7799 61.0452 90.7537 52.2674 85.7276C43.4895 80.7016 43.444 72.5776 52.1675 67.5849C60.8911 62.5923 75.0823 62.6161 83.8602 67.6421C92.638 72.6681 92.6811 80.7897 83.96 85.7848Z" fill="url(#paint23_linear_12924_136883)"/>
<path opacity="0.7" d="M33.3184 30.2324C33.3184 30.2324 45.7166 50.0761 69.2474 48.8855C96.4319 47.51 101.983 30.2324 101.983 30.2324L90.8048 76.2366C90.8048 76.25 90.8048 76.2625 90.8048 76.2759V76.3002C90.8048 79.7535 88.6045 83.1993 84.1916 85.8264C75.3327 91.0998 60.9234 91.0721 52.0101 85.766C47.2738 82.9471 45.0418 79.2047 45.3174 75.526L33.3184 30.2324Z" fill="url(#paint24_linear_12924_136883)"/>
<g opacity="0.2">
<path opacity="0.2" d="M45.898 77.9464C45.898 77.9464 45.8645 77.0018 45.807 75.3477C45.7687 73.6951 45.6768 71.3337 45.6337 68.4992C45.5906 65.6647 45.5076 62.3588 45.49 58.8155C45.4724 55.2722 45.4485 51.4939 45.4277 47.7149C45.4485 43.9359 45.4701 40.1568 45.49 36.6127C45.51 33.0686 45.5954 29.7635 45.6337 26.929C45.6721 24.0945 45.7695 21.7331 45.8078 20.0797C45.8661 18.428 45.8996 17.4834 45.8996 17.4834C45.8996 17.4834 45.9331 18.428 45.9914 20.0813C46.0297 21.7347 46.1232 24.0961 46.1655 26.929C46.2078 29.7619 46.2932 33.0694 46.3092 36.6127C46.3252 40.156 46.3499 43.9343 46.3715 47.7133C46.3499 51.4923 46.3292 55.2714 46.3084 58.8139C46.2876 62.3564 46.203 65.6639 46.1647 68.4992C46.1264 71.3345 46.0297 73.6951 45.9914 75.3477C45.9307 77.0018 45.898 77.9464 45.898 77.9464Z" fill="#F6F5FF"/>
</g>
<g opacity="0.2">
<path opacity="0.2" d="M90.4738 78.2734C90.4738 78.2734 90.4403 77.5495 90.382 76.2826C90.3437 75.0126 90.2519 73.2061 90.2087 71.0344C90.1656 68.8627 90.0818 66.329 90.0642 63.6144C90.0467 60.8998 90.0227 58.0042 90.002 55.1086C90.0227 52.213 90.0443 49.3142 90.0642 46.6028C90.0842 43.8914 90.1696 41.3545 90.2079 39.1828C90.2463 37.0111 90.3437 35.1982 90.382 33.9346C90.4403 32.6677 90.4738 31.9438 90.4738 31.9438C90.4738 31.9438 90.5074 32.6677 90.5656 33.9346C90.604 35.1982 90.6974 37.0111 90.7397 39.1828C90.782 41.3545 90.8674 43.8882 90.8834 46.6028C90.8994 49.3174 90.9241 52.213 90.9457 55.1086C90.9241 58.0042 90.9034 60.903 90.8826 63.6144C90.8619 66.3259 90.7772 68.8627 90.7389 71.0344C90.7006 73.2061 90.604 75.0158 90.5656 76.2826C90.5074 77.5495 90.4738 78.2734 90.4738 78.2734Z" fill="#F6F5FF"/>
</g>
<path opacity="0.8" d="M50.1211 53.1084V62.6334" stroke="white" stroke-width="2.364" stroke-miterlimit="10" stroke-linecap="round"/>
<path opacity="0.4" d="M74.0742 56.2832V72.1582" stroke="white" stroke-width="2.364" stroke-miterlimit="10" stroke-linecap="round"/>
<path opacity="0.8" d="M86.8496 53.9023V61.8398" stroke="white" stroke-width="2.364" stroke-miterlimit="10" stroke-linecap="round"/>
<path d="M39.725 33.0935C40.2559 33.0935 40.6863 32.6656 40.6863 32.1378C40.6863 31.61 40.2559 31.1821 39.725 31.1821C39.1941 31.1821 38.7637 31.61 38.7637 32.1378C38.7637 32.6656 39.1941 33.0935 39.725 33.0935Z" fill="url(#paint25_linear_12924_136883)"/>
<path d="M96.7582 54.5031C97.2891 54.5031 97.7195 54.0753 97.7195 53.5475C97.7195 53.0197 97.2891 52.5918 96.7582 52.5918C96.2273 52.5918 95.7969 53.0197 95.7969 53.5475C95.7969 54.0753 96.2273 54.5031 96.7582 54.5031Z" fill="url(#paint26_linear_12924_136883)"/>
<path d="M73.1215 35.3894C73.6524 35.3894 74.0828 34.9615 74.0828 34.4337C74.0828 33.9059 73.6524 33.478 73.1215 33.478C72.5905 33.478 72.1602 33.9059 72.1602 34.4337C72.1602 34.9615 72.5905 35.3894 73.1215 35.3894Z" fill="url(#paint27_linear_12924_136883)"/>
<path d="M59.9261 63.5422C60.4571 63.5422 60.8874 63.1143 60.8874 62.5865C60.8874 62.0587 60.4571 61.6309 59.9261 61.6309C59.3952 61.6309 58.9648 62.0587 58.9648 62.5865C58.9648 63.1143 59.3952 63.5422 59.9261 63.5422Z" fill="url(#paint28_linear_12924_136883)"/>
<path d="M94.5004 18.9441C95.0313 18.9441 95.4617 18.5162 95.4617 17.9884C95.4617 17.4606 95.0313 17.0327 94.5004 17.0327C93.9695 17.0327 93.5391 17.4606 93.5391 17.9884C93.5391 18.5162 93.9695 18.9441 94.5004 18.9441Z" fill="url(#paint29_linear_12924_136883)"/>
<path d="M46.3636 6.98849C46.8946 6.98849 47.3249 6.56063 47.3249 6.03282C47.3249 5.50502 46.8946 5.07715 46.3636 5.07715C45.8327 5.07715 45.4023 5.50502 45.4023 6.03282C45.4023 6.56063 45.8327 6.98849 46.3636 6.98849Z" fill="url(#paint30_linear_12924_136883)"/>
<path d="M57.9183 47.4739C58.4492 47.4739 58.8796 47.046 58.8796 46.5182C58.8796 45.9904 58.4492 45.5625 57.9183 45.5625C57.3874 45.5625 56.957 45.9904 56.957 46.5182C56.957 47.046 57.3874 47.4739 57.9183 47.4739Z" fill="url(#paint31_linear_12924_136883)"/>
<g clip-path="url(#clip0_12924_136883)">
<path opacity="0.8" d="M35.7798 46.3564C26.9047 41.2137 22.0107 34.365 22 27.0665C21.9905 19.8186 26.807 13.0144 35.5644 7.90887C44.3089 2.80895 55.9522 0 68.3485 0C80.7448 0 92.4174 2.80895 101.226 7.9083C110.1 13.051 114.992 19.9042 115.003 27.2022C115.011 34.4484 110.195 41.2514 101.44 46.3564C100.124 47.1272 98.6848 47.871 97.1638 48.5669C91.6932 50.9945 85.9099 52.6392 79.9835 53.4528C76.2321 53.995 72.4467 54.266 68.6565 54.2636C56.2535 54.2636 44.5793 51.4552 35.7798 46.3564Z" fill="url(#paint32_linear_12924_136883)"/>
<path opacity="0.8" d="M40.8834 58.4281C33.4826 54.1423 29.401 48.4321 29.3926 42.3435C29.3836 36.2994 33.4013 30.6263 40.7027 26.3676C47.9935 22.115 57.7029 19.7739 68.0402 19.7739C78.3775 19.7739 88.1105 22.115 95.4506 26.3676C102.851 30.6567 106.931 36.3709 106.94 42.4561C106.948 48.4985 102.93 54.171 95.6307 58.4281C94.5339 59.0705 93.3304 59.6904 92.0642 60.2715C87.5024 62.2954 82.6801 63.6666 77.7384 64.345C74.6111 64.7964 71.4556 65.0222 68.296 65.0206C57.9549 65.0212 48.2196 62.6767 40.8834 58.4281Z" fill="url(#paint33_linear_12924_136883)"/>
</g>
<defs>
<linearGradient id="paint0_linear_12924_136883" x1="0.059753" y1="204.153" x2="136.1" y2="204.153" gradientUnits="userSpaceOnUse">
<stop stop-color="#CDDAF4"/>
<stop offset="0.1314" stop-color="#DAE4F8"/>
<stop offset="0.3828" stop-color="#EDF3FD"/>
<stop offset="0.5566" stop-color="#F4F9FF"/>
<stop offset="0.7239" stop-color="#F1F7FE"/>
<stop offset="0.8373" stop-color="#E8F0FC"/>
<stop offset="0.9345" stop-color="#D9E4F7"/>
<stop offset="1" stop-color="#CAD8F3"/>
</linearGradient>
<linearGradient id="paint1_linear_12924_136883" x1="0.0605469" y1="180.391" x2="145.535" y2="155.151" gradientUnits="userSpaceOnUse">
<stop stop-color="#9945FF"/>
<stop offset="1" stop-color="#B9F8FD"/>
</linearGradient>
<linearGradient id="paint2_linear_12924_136883" x1="95.5035" y1="172.683" x2="105.453" y2="121.474" gradientUnits="userSpaceOnUse">
<stop stop-color="#F4F9FF"/>
<stop offset="1" stop-color="#CAD8F3"/>
</linearGradient>
<linearGradient id="paint3_linear_12924_136883" x1="104.365" y1="161.797" x2="104.365" y2="119.784" gradientUnits="userSpaceOnUse">
<stop stop-color="#45CC86"/>
<stop offset="1" stop-color="#BAF281"/>
</linearGradient>
<linearGradient id="paint4_linear_12924_136883" x1="99.6987" y1="161.797" x2="99.6987" y2="127.13" gradientUnits="userSpaceOnUse">
<stop stop-color="#45CC86"/>
<stop offset="1" stop-color="#BAF281"/>
</linearGradient>
<linearGradient id="paint5_linear_12924_136883" x1="3.17935" y1="176.56" x2="132.846" y2="176.56" gradientUnits="userSpaceOnUse">
<stop stop-color="#CDDAF4"/>
<stop offset="0.1314" stop-color="#DAE4F8"/>
<stop offset="0.3828" stop-color="#EDF3FD"/>
<stop offset="0.5566" stop-color="#F4F9FF"/>
<stop offset="0.7239" stop-color="#F1F7FE"/>
<stop offset="0.8373" stop-color="#E8F0FC"/>
<stop offset="0.9345" stop-color="#D9E4F7"/>
<stop offset="1" stop-color="#CAD8F3"/>
</linearGradient>
<linearGradient id="paint6_linear_12924_136883" x1="3.2168" y1="154.017" x2="141.881" y2="129.953" gradientUnits="userSpaceOnUse">
<stop stop-color="#9945FF"/>
<stop offset="1" stop-color="#B9F8FD"/>
</linearGradient>
<linearGradient id="paint7_linear_12924_136883" x1="-0.00717727" y1="149.529" x2="136.034" y2="149.529" gradientUnits="userSpaceOnUse">
<stop stop-color="#CDDAF4"/>
<stop offset="0.1314" stop-color="#DAE4F8"/>
<stop offset="0.3828" stop-color="#EDF3FD"/>
<stop offset="0.5566" stop-color="#F4F9FF"/>
<stop offset="0.7239" stop-color="#F1F7FE"/>
<stop offset="0.8373" stop-color="#E8F0FC"/>
<stop offset="0.9345" stop-color="#D9E4F7"/>
<stop offset="1" stop-color="#CAD8F3"/>
</linearGradient>
<linearGradient id="paint8_linear_12924_136883" x1="0.0592288" y1="125.566" x2="136.032" y2="125.566" gradientUnits="userSpaceOnUse">
<stop stop-color="#F4F9FF"/>
<stop offset="1" stop-color="#CAD8F3"/>
</linearGradient>
<linearGradient id="paint9_linear_12924_136883" x1="95.4346" y1="118.059" x2="105.384" y2="66.8508" gradientUnits="userSpaceOnUse">
<stop stop-color="#F4F9FF"/>
<stop offset="1" stop-color="#CAD8F3"/>
</linearGradient>
<linearGradient id="paint10_linear_12924_136883" x1="104.296" y1="107.174" x2="104.296" y2="65.1606" gradientUnits="userSpaceOnUse">
<stop stop-color="#45CC86"/>
<stop offset="1" stop-color="#BAF281"/>
</linearGradient>
<linearGradient id="paint11_linear_12924_136883" x1="99.632" y1="107.174" x2="99.632" y2="72.5058" gradientUnits="userSpaceOnUse">
<stop stop-color="#45CC86"/>
<stop offset="1" stop-color="#BAF281"/>
</linearGradient>
<linearGradient id="paint12_linear_12924_136883" x1="15.2441" y1="114.885" x2="20.2825" y2="114.489" gradientUnits="userSpaceOnUse">
<stop stop-color="#9945FF"/>
<stop offset="1" stop-color="#B9F8FD"/>
</linearGradient>
<linearGradient id="paint13_linear_12924_136883" x1="21.4355" y1="127.824" x2="45.0416" y2="124.329" gradientUnits="userSpaceOnUse">
<stop stop-color="#9945FF"/>
<stop offset="1" stop-color="#B9F8FD"/>
</linearGradient>
<linearGradient id="paint14_linear_12924_136883" x1="118.736" y1="116.846" x2="113.698" y2="116.45" gradientUnits="userSpaceOnUse">
<stop stop-color="#9945FF"/>
<stop offset="1" stop-color="#B9F8FD"/>
</linearGradient>
<linearGradient id="paint15_linear_12924_136883" x1="112.545" y1="129.785" x2="88.9389" y2="126.29" gradientUnits="userSpaceOnUse">
<stop stop-color="#9945FF"/>
<stop offset="1" stop-color="#B9F8FD"/>
</linearGradient>
<linearGradient id="paint16_linear_12924_136883" x1="15.1641" y1="167.978" x2="20.2022" y2="167.581" gradientUnits="userSpaceOnUse">
<stop stop-color="#9945FF"/>
<stop offset="1" stop-color="#B9F8FD"/>
</linearGradient>
<linearGradient id="paint17_linear_12924_136883" x1="21.3555" y1="180.932" x2="44.9615" y2="177.437" gradientUnits="userSpaceOnUse">
<stop stop-color="#9945FF"/>
<stop offset="1" stop-color="#B9F8FD"/>
</linearGradient>
<linearGradient id="paint18_linear_12924_136883" x1="121.039" y1="168.653" x2="116.001" y2="168.256" gradientUnits="userSpaceOnUse">
<stop stop-color="#9945FF"/>
<stop offset="1" stop-color="#B9F8FD"/>
</linearGradient>
<linearGradient id="paint19_linear_12924_136883" x1="114.848" y1="181.607" x2="91.2416" y2="178.112" gradientUnits="userSpaceOnUse">
<stop stop-color="#9945FF"/>
<stop offset="1" stop-color="#B9F8FD"/>
</linearGradient>
<linearGradient id="paint20_linear_12924_136883" x1="13.0117" y1="117.021" x2="131.933" y2="97.3386" gradientUnits="userSpaceOnUse">
<stop stop-color="#9945FF"/>
<stop offset="1" stop-color="#B9F8FD"/>
</linearGradient>
<linearGradient id="paint21_linear_12924_136883" x1="257.286" y1="0.36969" x2="186.051" y2="85.2695" gradientUnits="userSpaceOnUse">
<stop stop-color="#0396FF"/>
<stop offset="0.167" stop-color="#36AEFF"/>
<stop offset="0.385" stop-color="#73CAFF"/>
<stop offset="0.586" stop-color="#A3E0FF"/>
<stop offset="0.762" stop-color="#C6F1FF"/>
<stop offset="0.906" stop-color="#DBFAFF"/>
<stop offset="1" stop-color="#E3FEFF"/>
</linearGradient>
<linearGradient id="paint22_linear_12924_136883" x1="45.6543" y1="92.0669" x2="93.5076" y2="83.6348" gradientUnits="userSpaceOnUse">
<stop stop-color="#9945FF"/>
<stop offset="1" stop-color="#B9F8FD"/>
</linearGradient>
<linearGradient id="paint23_linear_12924_136883" x1="67.5255" y1="86.7175" x2="68.2898" y2="43.9693" gradientUnits="userSpaceOnUse">
<stop offset="0.005" stop-color="#7100FB"/>
<stop offset="1" stop-color="#6900EA"/>
</linearGradient>
<linearGradient id="paint24_linear_12924_136883" x1="75" y1="42.5" x2="80.4517" y2="81.2308" gradientUnits="userSpaceOnUse">
<stop offset="0.005" stop-color="white" stop-opacity="0"/>
<stop offset="0.202" stop-color="#ECDCFF" stop-opacity="0.15"/>
<stop offset="0.416" stop-color="#DBBDFF" stop-opacity="0.412"/>
<stop offset="0.536458" stop-color="#CEA6FF" stop-opacity="0.624"/>
<stop offset="0.625" stop-color="#CEA6FF" stop-opacity="0.624"/>
<stop offset="0.823" stop-color="#C799FF" stop-opacity="0.824"/>
<stop offset="1" stop-color="#C494FF"/>
</linearGradient>
<linearGradient id="paint25_linear_12924_136883" x1="38.7637" y1="33.0935" x2="40.8586" y2="32.8809" gradientUnits="userSpaceOnUse">
<stop stop-color="#9945FF"/>
<stop offset="1" stop-color="#B9F8FD"/>
</linearGradient>
<linearGradient id="paint26_linear_12924_136883" x1="95.7969" y1="54.5031" x2="97.8918" y2="54.2906" gradientUnits="userSpaceOnUse">
<stop stop-color="#9945FF"/>
<stop offset="1" stop-color="#B9F8FD"/>
</linearGradient>
<linearGradient id="paint27_linear_12924_136883" x1="72.1602" y1="35.3894" x2="74.2551" y2="35.1768" gradientUnits="userSpaceOnUse">
<stop stop-color="#9945FF"/>
<stop offset="1" stop-color="#B9F8FD"/>
</linearGradient>
<linearGradient id="paint28_linear_12924_136883" x1="58.9648" y1="63.5422" x2="61.0598" y2="63.3296" gradientUnits="userSpaceOnUse">
<stop stop-color="#9945FF"/>
<stop offset="1" stop-color="#B9F8FD"/>
</linearGradient>
<linearGradient id="paint29_linear_12924_136883" x1="93.5391" y1="18.9441" x2="95.634" y2="18.7315" gradientUnits="userSpaceOnUse">
<stop stop-color="#9945FF"/>
<stop offset="1" stop-color="#B9F8FD"/>
</linearGradient>
<linearGradient id="paint30_linear_12924_136883" x1="45.4023" y1="6.98849" x2="47.4973" y2="6.77592" gradientUnits="userSpaceOnUse">
<stop stop-color="#9945FF"/>
<stop offset="1" stop-color="#B9F8FD"/>
</linearGradient>
<linearGradient id="paint31_linear_12924_136883" x1="56.957" y1="47.4739" x2="59.052" y2="47.2613" gradientUnits="userSpaceOnUse">
<stop stop-color="#9945FF"/>
<stop offset="1" stop-color="#B9F8FD"/>
</linearGradient>
<linearGradient id="paint32_linear_12924_136883" x1="68.5014" y1="17.3101" x2="68.5014" y2="110.644" gradientUnits="userSpaceOnUse">
<stop stop-color="#D1ABFF" stop-opacity="0"/>
<stop offset="1" stop-color="#12EFFF"/>
</linearGradient>
<linearGradient id="paint33_linear_12924_136883" x1="68.1662" y1="34.2076" x2="68.1662" y2="112.032" gradientUnits="userSpaceOnUse">
<stop stop-color="#D1ABFF" stop-opacity="0"/>
<stop offset="1" stop-color="#12EFFF"/>
</linearGradient>
<clipPath id="clip0_12924_136883">
<rect width="93" height="65" fill="white" transform="translate(21.666 0.0209961)"/>
</clipPath>
</defs>
</svg>
