<svg width="20" height="20" viewBox="0 0 20 20" fill="none" xmlns="http://www.w3.org/2000/svg">
<path d="M16.9869 7.05346C16.9869 8.51454 16.5577 9.85471 15.8193 10.9732C14.7415 12.5854 13.035 13.724 11.0491 14.0162C10.7098 14.0767 10.3605 14.1069 10.0012 14.1069C9.64198 14.1069 9.2927 14.0767 8.9534 14.0162C6.96749 13.724 5.261 12.5854 4.18322 10.9732C3.44474 9.85471 3.01562 8.51454 3.01562 7.05346C3.01562 3.15391 6.13919 0 10.0012 0C13.8633 0 16.9869 3.15391 16.9869 7.05346Z" fill="#B9F8FD"/>
<path d="M19.231 16.5955L17.5844 16.9884C17.2151 17.0791 16.9257 17.3613 16.8459 17.7341L16.4966 19.2153C16.307 20.0214 15.2891 20.2633 14.7602 19.6285L10 14.1066L5.2398 19.6385C4.71089 20.2733 3.69298 20.0315 3.50337 19.2254L3.15409 17.7441C3.06428 17.3713 2.77487 17.0791 2.41561 16.9985L0.769003 16.6055C0.0105648 16.4242 -0.258881 15.4669 0.28999 14.9127L4.18198 10.9829C5.25976 12.5951 6.96625 13.7338 8.95216 14.026C9.29146 14.0865 9.64074 14.1167 10 14.1167C10.3593 14.1167 10.7085 14.0865 11.0478 14.026C13.0338 13.7338 14.7402 12.5951 15.818 10.9829L19.71 14.9127C20.2589 15.4568 19.9894 16.4141 19.231 16.5955Z" fill="#B67AFF"/>
<path d="M10.5798 4.01052L11.1686 5.19953C11.2484 5.36075 11.458 5.52198 11.6476 5.55221L12.7154 5.73357C13.394 5.84441 13.5537 6.34824 13.0647 6.84198L12.2364 7.67831C12.0967 7.81938 12.0168 8.09145 12.0667 8.29298L12.3062 9.33085C12.4958 10.147 12.0667 10.4695 11.3482 10.0362L10.3503 9.44167C10.1706 9.33083 9.87124 9.33083 9.69161 9.44167L8.69367 10.0362C7.97515 10.4594 7.54603 10.147 7.73564 9.33085L7.97515 8.29298C8.01506 8.10153 7.94521 7.81938 7.8055 7.67831L6.9772 6.84198C6.48821 6.34824 6.64788 5.85449 7.32648 5.73357L8.39428 5.55221C8.57391 5.52198 8.78348 5.36075 8.86332 5.19953L9.45211 4.01052C9.74151 3.36563 10.2604 3.36563 10.5798 4.01052Z" fill="#B67AFF"/>
</svg>
